<svg id="Layer_1" height="100%" viewBox="0 0 48 48" width="100%" xmlns="http://www.w3.org/2000/svg" data-name="Layer 1"><path d="m24 2a22 22 0 1 0 22 22 22 22 0 0 0 -22-22zm0 41a19 19 0 1 1 19-19 19.021 19.021 0 0 1 -19 19z"/><path d="m24 7a17 17 0 1 0 17 17 17.019 17.019 0 0 0 -17-17zm-1 3a1 1 0 0 1 2 0v3a1 1 0 0 1 -2 0zm-10 15h-3a1 1 0 0 1 0-2h3a1 1 0 0 1 0 2zm12 13a1 1 0 0 1 -2 0v-3a1 1 0 0 1 2 0zm1.258-9.738-10.983 5.814a1 1 0 0 1 -1.351-1.351l5.813-10.981c.068-.128.151-.244.229-.364l6.654 6.654c-.12.078-.235.166-.362.228zm1.776-1.642-6.654-6.654c.119-.078.235-.161.362-.228l10.983-5.814a1 1 0 0 1 1.351 1.351l-5.813 10.981c-.063.128-.151.244-.229.364zm9.966-1.62h-3a1 1 0 0 1 0-2h3a1 1 0 0 1 0 2z"/></svg>