<?xml version="1.0"?>
<svg xmlns="http://www.w3.org/2000/svg" viewBox="0 0 192 192" width="100%" height="100%"><g id="_02-horseshoe" data-name="02-horseshoe"><g id="Glyph"><path d="M160.544,32H172a4,4,0,0,0,4-4V4a4,4,0,0,0-4-4H128a16.005,16.005,0,0,0-11.4,27.225C117.771,28.546,152,67.721,152,108c0,31.26-33.706,52-56,52s-56-20.74-56-52c0-40.2,34.149-79.364,35.386-80.759A16,16,0,0,0,64,0H20a4,4,0,0,0-4,4V28a4,4,0,0,0,4,4H31.456C19.858,50.87,8,79.826,8,108c0,24.623,11.539,48.985,30.115,63.582C54.387,184.367,76.027,192,96,192s41.613-7.633,57.885-20.419C172.461,156.985,184,132.623,184,108,184,79.826,172.142,50.87,160.544,32ZM40,40a8,8,0,1,1-8,8A8,8,0,0,1,40,40ZM16,96a8,8,0,1,1,8,8A8,8,0,0,1,16,96Zm16,56a8,8,0,1,1,8-8A8,8,0,0,1,32,152Zm32,24a8,8,0,1,1,8-8A8,8,0,0,1,64,176Zm64,0a8,8,0,1,1,8-8A8,8,0,0,1,128,176ZM144,48a8,8,0,1,1,8,8A8,8,0,0,1,144,48Zm16,104a8,8,0,1,1,8-8A8,8,0,0,1,160,152Zm8-48a8,8,0,1,1,8-8A8,8,0,0,1,168,104Z"/></g></g></svg>
