<svg id="Glyph" height="100%" viewBox="0 0 32 32" width="100%" xmlns="http://www.w3.org/2000/svg"><path id="XMLID_3129_" d="m22.987 2.069c-5.867 4.73-12.597 7.133-20.191 7.21-.19.002-.332.169-.291.354.478 2.161 3.128 13.625 6.129 16.371 2.506 2.293 9.956 4.863 13.177 3.713s7.244-7.815 7.661-11.152c.5-4.001-4.999-14.477-6.038-16.413-.089-.165-.302-.2-.447-.083zm-15.059 15.696c-.053.036-.129-.001-.13-.065-.032-1.473.689-3.251 2.304-3.839 1.871-.681 3.548.225 4.469 1.376.04.05.008.127-.056.134-.54.06-2.438.29-3.495.646-.96.322-2.626 1.431-3.092 1.748zm12.111 7.348c-2.772 1.009-5.824-.076-6.891-1.552-.041-.057.012-.132.082-.122 1.792.252 3.74-.395 5.785-1.139s3.954-1.501 5.164-2.846c.047-.053.136-.029.141.041.131 1.816-1.509 4.609-4.281 5.618zm4.563-13.409c-.585.08-2.815.393-3.501.643-.685.249-2.596 1.443-3.095 1.758-.054.034-.125-.004-.126-.068-.036-1.474.666-3.249 2.539-3.931 1.617-.589 3.316.313 4.237 1.465.039.049.008.124-.054.133z"/></svg>