<svg enable-background="new 0 0 512 512" height="100%" viewBox="0 0 512 512" width="100%" xmlns="http://www.w3.org/2000/svg"><g id="_x30_6_Natural_Product"><path d="m481.212 20.855c-1.375-10.584-10.933-18.023-21.531-16.756-33.56 4.013-104.68 18.335-144.047 68.895-41.854 53.755-35.142 132.293-30.602 162.378-10.695 32.231-16.875 66.764-20.382 97.902-6.199-36.244-20.259-78.418-51.22-108.934-49.429-48.72-127.865-53.99-164.481-53.528-11.558.146-20.764 9.49-20.737 21.049.087 36.605 6.528 114.91 55.952 163.626 52.762 52.005 138.568 54.49 171.206 53.362 7.056 24.909 9.584 54.688 4.591 90.171-.665 4.733 2.994 9.021 7.851 9.021 3.884 0 7.273-2.858 7.83-6.814 3.626-25.766-1.538-49.281 6.04-75.917 24.423.127 79.7-3.723 113.804-38.321 33.443-33.928 37.063-87.766 36.746-112.899-.1-7.934-6.513-14.253-14.447-14.234-25.125.059-78.874 4.481-112.314 38.405-11.702 11.871-19.726 26.187-25.234 40.854 3.122-29.198 8.56-61.646 17.884-92.073 29.015-2.654 109.029-14.827 151.67-69.594 39.37-50.565 35.778-123.063 31.421-156.593z"/></g></svg>