<svg id="Halloween_icon" height="100%" viewBox="0 0 512 512" width="100%" xmlns="http://www.w3.org/2000/svg" data-name="Halloween icon"><path id="halloween_pumpkin" d="m444.3 109.108c-37.98-28.485-60.423-18.126-103.581 0-12.085-18.126-31.075-19.853-51.791-9.5-8.632-6.042-14.674-14.674-12.084-31.074s27.621-36.253 27.621-36.253-.863-5.18-13.811-16.4c-39.706 13.811-73.37 78.549-73.37 78.549s-1.726 5.179-5.179 4.316c-12.947-9.5-35.39-6.042-56.106 10.358-33.664-19.853-56.97-20.716-94.95 6.906s-65.603 99.269-60.424 167.46 39.706 141.561 88.907 182.993 83.728 29.348 113.076 12.085c27.622 25.895 71.644 18.99 88.044-.863 0 0 6.043 8.632 18.99 14.674 25.9 8.632 66.465 3.452 111.35-26.759s86.318-119.981 90.634-195.078-29.348-132.929-67.326-161.414zm-34.529 79.412s-21.58 96.676-42.3 98.4c-28.438 2.369-56.97-17.264-85.454-25.033 11.225-4.312 127.754-73.367 127.754-73.367zm-192.489 70.78c-31.937 11.221-54.38 27.622-71.643 30.211s-40.57-50.927-44.885-100.992c18.126 18.991 100.128 63.881 116.528 70.781zm157.962 141.562-25.032-14.674-52.654 43.159-48.338-30.211-44.885 25.032-41.435-44.022-25.895 25.032-56.97-77.686c2.59 1.726 57.833 37.669 57.833 37.669l40.569-18.99 31.075 37.807 43.159-32.8 37.116 32.8 40.57-37.807 31.943 20.716 66.465-36.805zm-.051-275.019c28.319-18.71 76.972-5.325 98.978 78.322-30.124-53.365-56.805-81.765-98.978-78.322z" data-name="halloween pumpkin"/></svg>