<svg id="solid" height="512" viewBox="0 0 64 64" width="512" xmlns="http://www.w3.org/2000/svg"><path d="m6.5 22h4v-1h11.7143l-.5714 1h16.2857l-1.4286-5h-12l-1.1428 2h-12.8572v-1h-4a2 2 0 0 0 0 4z"/><path d="m53.5 20h-6a2 2 0 0 0 -2 2h10a2 2 0 0 0 -2-2z"/><path d="m23.6016 30.7461a.7393.7393 0 0 1 .4077-.083l36.7314.3342-1.7493-6.9973h-42l-5 5-7.9414.7941 10.9468 4.6913z"/><path d="m24.2036 32.665-8.8052 3.8262a.9906.9906 0 0 1 -.3984.083 1.0035 1.0035 0 0 1 -.394-.081l-11.326-4.8532 9.7114 12.36h1.0886a6.9906 6.9906 0 0 1 13.84 0h1.16a6.9906 6.9906 0 0 1 13.84 0h1.16a6.9906 6.9906 0 0 1 13.84 0h1.0713l1.8337-11.0017z"/><path d="m21 40a5 5 0 1 0 5 5 5 5 0 0 0 -5-5zm.0086 6a1 1 0 1 1 1-1 1 1 0 0 1 -1 1z"/><path d="m36 40a5 5 0 1 0 5 5 5 5 0 0 0 -5-5zm.0086 6a1 1 0 1 1 1-1 1 1 0 0 1 -1 1z"/><path d="m51 40a5 5 0 1 0 5 5 5 5 0 0 0 -5-5zm.0086 6a1 1 0 1 1 1-1 1 1 0 0 1 -1 1z"/></svg>