<svg xmlns="http://www.w3.org/2000/svg" version="1.1" xmlns:xlink="http://www.w3.org/1999/xlink" xmlns:svgjs="http://svgjs.com/svgjs" width="100%" height="100%" x="0" y="0" viewBox="0 0 489.152 489.152" style="enable-background:new 0 0 512 512" xml:space="preserve" class=""><g><path d="M488.811 168.756a434.91 434.91 0 0 0-205.21-26.79 434.388 434.388 0 0 0-109.45 26.79c0 112.57-15.2 278.04 157.33 318.73 172.53-40.69 157.33-206.16 157.33-318.73zm-271.97 89.79c3.52-5.12 7.84-9.65 12.79-13.38 7.94 6 17.51 9.98 27.92 11.15 2.13.25 4.3.37 6.49.37 12.91 0 24.83-4.29 34.41-11.52 4.95 3.73 9.27 8.26 12.78 13.38-10.31 15.03-27.6 24.89-47.19 24.89-2.15 0-4.27-.12-6.36-.36-16.95-1.87-31.66-11.15-40.84-24.53zm114.63 105.03c-21.59 0-41.93 5.36-59.75 14.81a127.98 127.98 0 0 0-28.98 21.04c1.2-20.37 9.24-38.89 21.87-53.3 16.29-18.59 40.2-30.32 66.86-30.32 47.33 0 86 36.98 88.73 83.62-22.98-22.19-54.25-35.85-88.73-35.85zm67.44-80.14c-19.6 0-36.89-9.86-47.19-24.89 3.51-5.12 7.83-9.65 12.78-13.38a56.89 56.89 0 0 0 34.41 11.52c12.92 0 24.84-4.29 34.42-11.52 4.95 3.73 9.27 8.26 12.78 13.38-10.31 15.03-27.6 24.89-47.2 24.89z" style="" fill="#000000" data-original="#91cdf2" class=""></path><path d="M331.481 487.486c-172.53-40.69-157.33-206.16-157.33-318.73a434.388 434.388 0 0 1 109.45-26.79c-17.03 32.95-24.86 73.13-26.05 114.35a56.781 56.781 0 0 1-27.92-11.15 57.642 57.642 0 0 0-12.79 13.38c9.18 13.38 23.89 22.66 40.84 24.53.81 21.38 3.23 42.68 6.93 63.05-12.63 14.41-20.67 32.93-21.87 53.3 8.59-8.3 18.34-15.4 28.98-21.04 14 53.73 36.53 96.41 59.76 109.1z" style="" fill="#000000" data-original="#4bb0e3" class=""></path><path d="M315.001 31.106a434.91 434.91 0 0 0-157.33-29.44c-21.65 0-43.3 1.61-64.75 4.84v.01a434.007 434.007 0 0 0-92.58 24.59c0 111.3-14.86 274.31 151.56 317.3 1.9.5 3.82.97 5.77 1.43 172.53-40.69 157.33-206.16 157.33-318.73zm-271.97 91.3c7.49-10.92 18.66-19.11 31.73-22.76a56.827 56.827 0 0 1 15.47-2.13c19.6 0 36.89 9.86 47.19 24.89a57.394 57.394 0 0 1-12.78 13.38 56.89 56.89 0 0 0-34.41-11.52c-5.37 0-10.56.74-15.48 2.12a56.985 56.985 0 0 0-18.94 9.4 57.394 57.394 0 0 1-12.78-13.38zm114.64 151.32c-22.02 0-42.49-6.66-59.49-18.08-26.95-18.07-45.21-48.1-47.23-82.49a154.22 154.22 0 0 0 31.92 23.71c22.14 12.36 47.64 19.41 74.8 19.41 41.46 0 79.07-16.43 106.71-43.12-3.28 56.09-49.8 100.57-106.71 100.57zm101.84-137.94a56.89 56.89 0 0 0-34.41-11.52c-12.91 0-24.83 4.29-34.41 11.52a57.394 57.394 0 0 1-12.78-13.38c10.31-15.03 27.6-24.89 47.19-24.89 19.6 0 36.89 9.86 47.2 24.89a57.642 57.642 0 0 1-12.79 13.38z" style="" fill="#757575" data-original="#ffe257" class=""></path><path d="M151.901 348.406c-166.42-42.99-151.56-206-151.56-317.3a434.007 434.007 0 0 1 92.58-24.59c-11.47 29.06-16.97 60.91-18.16 93.13-13.07 3.65-24.24 11.84-31.73 22.76 3.51 5.12 7.83 9.65 12.78 13.38 5.6-4.23 12-7.45 18.94-9.4.79 23.99 3.73 47.82 8.12 70.48a154.22 154.22 0 0 1-31.92-23.71c2.02 34.39 20.28 64.42 47.23 82.49 16.25 49.16 37.71 85.29 53.72 92.76z" style="" fill="#757575" data-original="#ffad42" class=""></path></g></svg>