<svg height="100%" viewBox="0 0 128 128" width="100%" xmlns="http://www.w3.org/2000/svg"><g id="Glyph"><g id="Glyph-2" data-name="Glyph"><circle cx="53" cy="50.25" r="10.75"/><circle cx="78" cy="55.25" r="10.25"/><rect height="14" rx="4.5" width="33" x="95" y="57"/><rect height="14" rx="4.5" width="33" y="57"/><rect height="33" rx="4.5" width="14" x="57"/><path d="m52.2 122.321a1.51 1.51 0 0 0 1.8-1.47v-11.28a1.5 1.5 0 0 0 -1.133-1.454 45.454 45.454 0 0 1 -32.982-32.984 1.5 1.5 0 0 0 -1.454-1.133h-11.272a1.511 1.511 0 0 0 -1.471 1.8 59.352 59.352 0 0 0 46.512 46.521z"/><path d="m7.159 54h11.272a1.5 1.5 0 0 0 1.454-1.133 45.454 45.454 0 0 1 32.982-32.984 1.5 1.5 0 0 0 1.133-1.454v-11.28a1.509 1.509 0 0 0 -1.8-1.47 59.352 59.352 0 0 0 -46.512 46.521 1.511 1.511 0 0 0 1.471 1.8z"/><path d="m75.133 19.885a45.454 45.454 0 0 1 32.984 32.982 1.5 1.5 0 0 0 1.454 1.133h11.28a1.51 1.51 0 0 0 1.47-1.8 59.351 59.351 0 0 0 -46.521-46.511 1.508 1.508 0 0 0 -1.8 1.47v11.272a1.5 1.5 0 0 0 1.133 1.454z"/><path d="m74 109.571v11.28a1.51 1.51 0 0 0 1.8 1.47 59.355 59.355 0 0 0 46.512-46.521 1.51 1.51 0 0 0 -1.471-1.8h-11.272a1.5 1.5 0 0 0 -1.454 1.133 45.454 45.454 0 0 1 -32.982 32.984 1.5 1.5 0 0 0 -1.133 1.454z"/><rect height="33" rx="4.5" width="14" x="57" y="95"/><path d="m78.011 67.208a16.6 16.6 0 0 0 -5.144.826 1.511 1.511 0 0 0 -.783 2.259 22.92 22.92 0 0 1 3.08 6.782 10.374 10.374 0 0 1 -3.285 10.534 1.512 1.512 0 0 0 .641 2.6 24.989 24.989 0 0 0 19.3-3.676 6.369 6.369 0 0 0 2.463-6.823 16.9 16.9 0 0 0 -16.272-12.502z"/><path d="m72.267 77.855a19.925 19.925 0 0 0 -38.512 0 7.345 7.345 0 0 0 2.845 7.872 28.807 28.807 0 0 0 32.827 0 7.347 7.347 0 0 0 2.84-7.872z"/></g></g></svg>