<svg id="Icons" height="512" viewBox="0 0 60 60" width="512" xmlns="http://www.w3.org/2000/svg"><path d="m14.21 18.329a.959.959 0 0 1 .34-.7 24.007 24.007 0 0 1 39.273 15.419 24.327 24.327 0 0 1 -1.069 10.571l-3.054-.352a20.737 20.737 0 0 0 1.3-7.267 20.971 20.971 0 0 0 -35.106-15.52l-1.387-1.387a1.025 1.025 0 0 1 -.297-.764z"/><path d="m47.627 43.027-3.09-.356a15.978 15.978 0 0 0 -25.1-18.652l-2.125-2.125a18.96 18.96 0 0 1 30.315 21.133z"/><path d="m40.948 34.918a11 11 0 0 0 -17.339-7.871.98.98 0 0 1 -1.264-.116l-1.5-1.5a13.848 13.848 0 0 1 9.155-3.431 13.992 13.992 0 0 1 12.432 20.428l-3.268-.378a11.047 11.047 0 0 0 1.784-7.132z"/><path d="m32.673 45a5.015 5.015 0 0 1 3.9-1.235l17.542 2.025a1 1 0 0 1 .885.993v2.217h-20a5.971 5.971 0 0 0 -4 1.537v-1.8a5 5 0 0 1 1.673-3.737z"/><path d="m5 46.783a1 1 0 0 1 .885-.994l17.541-2.024a5 5 0 0 1 5.574 4.967v1.8a5.971 5.971 0 0 0 -4-1.532h-20z"/><path d="m58 54a1 1 0 0 1 -1 1h-23a1 1 0 0 0 -1 1 2 2 0 0 1 -2 2h-2a2 2 0 0 1 -2-2 1 1 0 0 0 -1-1h-23a1 1 0 0 1 -1-1v-2a1 1 0 0 1 1-1h22a4 4 0 0 1 4 4 1 1 0 0 0 2 0 4 4 0 0 1 4-4h22a1 1 0 0 1 1 1z"/><path d="m57.914 18.5.793-.793a1 1 0 0 0 -1.414-1.414l-.793.793-.793-.793a1 1 0 0 0 -1.414 1.414l.793.793-.793.793a1 1 0 1 0 1.414 1.414l.793-.793.793.793a1 1 0 0 0 1.414-1.414z"/><path d="m49.707 7.293a1 1 0 0 0 -1.414 0l-.793.793-.793-.793a1 1 0 1 0 -1.414 1.414l.793.793-.793.793a1 1 0 1 0 1.414 1.414l.793-.793.793.793a1 1 0 0 0 1.414-1.414l-.793-.793.793-.793a1 1 0 0 0 0-1.414z"/><circle cx="15" cy="28" r="1"/><circle cx="55" cy="11" r="1"/><path d="m19.914 32.5.793-.793a1 1 0 0 0 -1.414-1.414l-.793.793-.793-.793a1 1 0 0 0 -1.414 1.414l.793.793-.793.793a1 1 0 1 0 1.414 1.414l.793-.793.793.793a1 1 0 0 0 1.414-1.414z"/><path d="m7.293 21.707a1 1 0 0 0 1.414-1.414l-.793-.793.793-.793a1 1 0 0 0 -1.414-1.414l-.793.793-.793-.793a1 1 0 0 0 -1.414 1.414l.793.793-.793.793a1 1 0 1 0 1.414 1.414l.793-.793z"/><path d="m10.707 27.293a1 1 0 0 0 -1.414 0l-.793.793-.793-.793a1 1 0 0 0 -1.414 1.414l.793.793-.793.793a1 1 0 1 0 1.414 1.414l.793-.793.793.793a1 1 0 0 0 1.414-1.414l-.793-.793.793-.793a1 1 0 0 0 0-1.414z"/><circle cx="8" cy="35" r="1"/><circle cx="3" cy="26" r="1"/></svg>