<svg height="56" viewBox="0 0 60 56" width="60" xmlns="http://www.w3.org/2000/svg"><g id="Page-1" fill="none" fill-rule="evenodd"><g id="012---Horror-Book" fill="rgb(0,0,0)" fill-rule="nonzero" transform="translate(-1 -1)"><path id="Rectangle-path" d="m9 45h2v12h-2z"/><path id="Rectangle-path" d="m17 50h12.001v2h-12.001z"/><path id="Shape" d="m6.6 25.2c1.8 1.346 2.528.709 3.858-.451.9156825-1.011696 2.1820506-1.6370144 3.542-1.749.6421891-.063036 1.2706115.214198 1.657.731.529.8.125 1.746-.3 2.745-.835 1.953-.992 2.9.2 3.692 2.187 1.458 4.621-1.735 4.645-1.768.2361672-.3150651.63524-.4622131 1.0194118-.3758824.3841717.0863307.681922.3900683.7605882.7758824.01.047.984 4.747 3.727 7.49 1.9164281 1.8489072 3.3252067 4.1595657 4.091 6.71h2.4c.7665448-2.5494623 2.1756435-4.859048 4.092-6.707 2.754-2.754 3.717-7.442 3.727-7.489.0786662-.3858141.3764165-.6895517.7605882-.7758824.3841718-.0863307.7832446.0608173 1.0194118.3758824.1.13 2.473 3.216 4.645 1.768 1.193-.795 1.036-1.739.2-3.692-.428-1-.832-1.943-.3-2.745.3852869-.5179828 1.0133979-.796764 1.656-.735 1.3599494.1119856 2.6263175.737304 3.542 1.749 1.329 1.161 2.062 1.8 3.858.451 2.092-1.568-.27-6.656-2.107-8.493-.6032695-.5089931-.9449218-1.2628324-.93-2.052.128-.947.968-1.425 1.643-1.81.582-.331.994-.586.994-.845 0-.641-.124-.836-.258-.953-.451-.391-1.965-.719-6.6-.057-2.0494909.2519226-3.9959356 1.0412643-5.642 2.288-.3204651.2506355-.7608276.2821405-1.1137088.0796785-.3528812-.2024621-.5479294-.5985276-.4932912-1.0016785.5334504-3.86114504-1.2275225-7.67995138-4.5104434-9.78124637-3.2829209-2.10129499-7.4881923-2.10129499-10.7711132 0s-5.0438938 5.92010133-4.5104434 9.78124637c.0546382.4031509-.14041.7992164-.4932912 1.0016785-.3528812.202462-.7932437.170957-1.1137088-.0796785-1.6452083-1.2462488-3.5905559-2.0355652-5.639-2.288-4.637-.661-6.149-.334-6.6.057-.131.117-.255.312-.255.953 0 .259.412.514.994.845.675.385 1.515.863 1.643 1.81.01492183.7891676-.32673048 1.5430069-.93 2.052-1.838 1.838-4.198 6.925-2.107 8.493zm26.778-19.486c1.4150105-1.10394164 3.4541798-.86747104 4.579.531 1.3084531 1.22923153 1.3868563 3.28152396.176 4.607-1.4126234 1.1124125-3.4584421.8751708-4.579-.531-1.3084531-1.22923153-1.3868563-3.28152396-.176-4.607zm1.622 10.286c0 2.757-1.794 5-4 5s-4-2.243-4-5 1.794-5 4-5 4 2.243 4 5zm-10.957-9.755c1.1248202-1.39847104 3.1639895-1.63494164 4.579-.531 1.2108563 1.32547604 1.1324531 3.37776847-.176 4.607-1.1179581 1.4108474-3.1678372 1.6485599-4.579.531-1.2108563-1.32547604-1.1324531-3.37776847.176-4.607z"/><path id="Shape" d="m3 46v10c0 .5522847.44771525 1 1 1h3v-12h-3c-.55228475 0-1 .4477153-1 1z"/><path id="Shape" d="m58 45h-3v12h3c.5522847 0 1-.4477153 1-1v-10c0-.5522847-.4477153-1-1-1z"/><path id="Rectangle-path" d="m51 45h2v12h-2z"/><path id="Shape" d="m13 45v12h36v-12zm18 7c0 1.1045695-.8954305 2-2 2h-12c-1.1045695 0-2-.8954305-2-2v-2c0-1.1045695.8954305-2 2-2h12c1.1045695 0 2 .8954305 2 2zm14-4c0-.5522847.4477153-1 1-1s1 .4477153 1 1v6c0 .5522847-.4477153 1-1 1s-1-.4477153-1-1zm-4 2c0-.5522847.4477153-1 1-1s1 .4477153 1 1v2c0 .5522847-.4477153 1-1 1s-1-.4477153-1-1z"/><path id="Shape" d="m18.494 38.5c.3361559.4091014.5155493.9245913.506 1.454-.0276142.5522847.3977153 1.0223857.95 1.05.5522847.0276142 1.0223858-.3977153 1.05-.95.0375552-1.0704993-.3364013-2.1147148-1.045-2.918-.779398-.7804844-1.8534909-1.1934014-2.955-1.136-2.6 0-3.274-.784-4.105-2.447-.2468713-.4942949-.8477051-.6948713-1.342-.448s-.6948713.8477051-.448 1.342c1.125 2.253 2.451 3.553 5.895 3.553.5454339-.0447572 1.0853829.1359486 1.494.5z"/><path id="Shape" d="m10 37c0-.148-.052-3.644-4.553-5.9-2.516-1.252-2.454-2.953-2.447-3.006.05191476-.5522847-.35371526-1.0420852-.906-1.094-.55228475-.0519148-1.04208523.3537153-1.094.906-.007.125-.241 3.094 3.553 4.994 3.323 1.656 3.447 3.987 3.447 4.111.00303757.5522847.45321525.9975376 1.0055.9945s.9975376-.4532153.9945-1.0055z"/><path id="Shape" d="m50.444 33.1c-.2373497-.1186659-.5121326-.1381283-.7638386-.0541012-.251706.084027-.4596935.2646527-.5781614.5021012-.831 1.668-1.508 2.452-4.102 2.452-1.1014686-.0571465-2.1754613.355732-2.955 1.136-.7084202.8033905-1.0823504 1.8475326-1.045 2.918.0192923.3572656.2277181.6771003.5467654.8390254.3190472.1619252.7002451.1413405 1-.054.2997549-.1953404.472527-.5357598.4532346-.8930254-.0055663-.5216665.1712891-1.0288876.5-1.434.4074686-.3711173.9506585-.5565261 1.5-.512 3.444 0 4.769-1.3 5.894-3.553.1201119-.2381013.1401432-.5143157.0556421-.7672557s-.2665338-.4616497-.5056421-.5797443z"/><path id="Shape" d="m60.992 27.906c-.0517733-.5401249-.5282839-.9381829-1.069-.893-.5447146.0452026-.9541538.5163016-.923 1.062 0 .072.065 1.773-2.451 3.03-4.501 2.251-4.549 5.747-4.549 5.895 0 .5522847.4477153 1 1 1s1-.4477153 1-1c0-.024.093-2.429 3.447-4.1 3.791-1.9 3.553-4.869 3.545-4.994z"/></g></g></svg>