<svg id="Capa_1" enable-background="new 0 0 512 512" height="512" viewBox="0 0 512 512" width="512" xmlns="http://www.w3.org/2000/svg"><g><circle cx="196" cy="180" r="15"/><circle cx="316" cy="180" r="15"/><path d="m413.956 131.191c-14.195-76.017-80.624-131.191-157.956-131.191s-143.76 55.174-157.954 131.191l-68.036 364.365 17.562.478c12.59.342 18.678 3.112 26.386 6.619 9.629 4.381 20.544 9.347 41.38 9.347s31.75-4.965 41.38-9.347c8.171-3.717 14.625-6.653 28.958-6.653 14.332 0 20.785 2.936 28.955 6.653 9.629 4.381 20.543 9.347 41.379 9.347 20.835 0 31.749-4.966 41.378-9.347 8.17-3.717 14.623-6.653 28.954-6.653 14.33 0 20.782 2.936 28.952 6.653 9.628 4.381 20.542 9.347 41.376 9.347s31.748-4.966 41.377-9.347c7.707-3.506 13.795-6.276 26.382-6.619l17.562-.478zm-142.956 48.809c0-24.813 20.186-45 45-45 24.813 0 45 20.187 45 45s-20.187 45-45 45-45-20.187-45-45zm-30 0c0 24.813-20.187 45-45 45s-45-20.187-45-45 20.187-45 45-45 45 20.187 45 45z"/></g></svg>