<svg height="512" viewBox="0 0 64 64" width="512" xmlns="http://www.w3.org/2000/svg"><g id="Hacker"><path d="m59.17 29.1589c0 3.75-12.17 6.79-27.17 6.79s-27.17-3.04-27.17-6.79c0-1.75 2.65-3.34 7.01-4.55-.22.86-.41 1.65-.57 2.33a3.0463 3.0463 0 0 0 .41 2.34 3.581 3.581 0 0 0 2.31 1.5c1.07.21 1.95.41 2.75.59 3.43.77 5.69 1.28 15.26 1.28 9.75 0 11.78-.38 15.46-1.07.73-.14 1.53-.29 2.48-.45a3.49177 3.49177 0 0 0 2.41-1.56 3.03461 3.03461 0 0 0 .32-2.51c-.27-.9-.5-1.72-.72-2.5 4.48 1.20998 7.22 2.82998 7.22 4.6z"/><path d="m40.74707 44.35073c-2.00781.25488-3.05273.88281-3.15381 1.248-.01709.06152-.06494.4121.67969 1.21875a3.38943 3.38943 0 0 0 2.46875.99121 5.26278 5.26278 0 0 0 3.66162-1.43457c1.03272-1.0293 1.05957-1.40528 1.0542-1.47071-.21436-.3603-2.17627-.87495-4.71045-.55268z"/><path d="m23.81934 44.35073a12.50972 12.50972 0 0 0 -1.58008-.10156c-1.73487 0-2.96582.37988-3.14063.68261.00391.03711.03076.41407 1.06348 1.44141a5.162 5.162 0 0 0 3.66162 1.43555 3.39183 3.39183 0 0 0 2.46875-.99024c.74512-.80762.69727-1.1582.68018-1.21972-.10108-.36524-1.14551-.99317-3.15332-1.24805z"/><path d="m50.34131 38.67959c-1.42493.24939-2.91028.46673-4.45319.64184a127.09312 127.09312 0 0 1 -13.88812.66779 127.09312 127.09312 0 0 1 -13.88812-.66779c-1.54291-.17511-3.02826-.39245-4.45319-.64184-1.92706-.33722-2.95782 2.03192-2.58 3.928a12.60611 12.60611 0 0 0 5.28095 8.25129 17.07544 17.07544 0 0 0 10.0719 2.78784 3.91117 3.91117 0 0 0 2.77789-1.47516c.9104-.93561 1.33771-1.63477 2.79059-1.65808 1.45288.02331 1.88019.72247 2.79059 1.65808a3.91117 3.91117 0 0 0 2.77789 1.47516 17.07544 17.07544 0 0 0 10.0719-2.78784 12.60527 12.60527 0 0 0 5.28095-8.25129c.38212-1.91781-.66735-4.26272-2.58004-3.928zm-22.57861 9.49541a5.36458 5.36458 0 0 1 -3.897 1.63281c-.04736.002-.0957.002-.14306.002a7.15167 7.15167 0 0 1 -4.97217-2.01953c-.61279-.60937-2.04883-2.03906-1.5376-3.52148.67236-1.9502 4.04443-2.05371 5.4707-2.01172 2.65332.083 5.67969.86523 6.2168 2.80859a3.33073 3.33073 0 0 1 -1.13767 3.10933zm18.05273-.38477a7.15255 7.15255 0 0 1 -4.97217 2.01953c-.04785 0-.0957 0-.144-.002a5.365 5.365 0 0 1 -3.89653-1.63376 3.32909 3.32909 0 0 1 -1.1372-3.1084c.53711-1.94339 3.56347-2.7256 6.21679-2.8086 1.42334-.04 4.79737.0625 5.47022 2.01172.51074 1.48045-.92432 2.91111-1.53711 3.52146z"/><path d="m49.6 29.1589c-5.57.95-6.04 1.49-17.6 1.49-11.61 0-12.05-.73-17.62-1.83-.74-.15-1.32-.7-1.16-1.44.21-.92.49005-2.05.84-3.32.81-3.01 1.94-6.83 3.16-10.57a4.302 4.302 0 0 1 2.69-2.86c1.51-.59 2.95.16 4.69.79a15.85981 15.85981 0 0 0 7.67 1.79c4.37-.15 5.12-1.67 9.76-2.78a4.52457 4.52457 0 0 1 3.43994.89c2.2 1.45 2.27 4.14 3.21 8.37.35 1.56.67 2.9 1.05 4.33.3 1.1.63 2.25 1.03 3.61a1.25607 1.25607 0 0 1 -1.15994 1.53z"/></g></svg>