<svg id="Glyph" enable-background="new 0 0 100 100" height="512" viewBox="0 0 100 100" width="512" xmlns="http://www.w3.org/2000/svg"><path d="m82.5 86h-20.2l-.1-18.9c.1-.2.2-.5.3-.7l10.9-12.3c.1-.1.1-.3.2-.4l4.7-15.6c.1-.3.1-.6-.1-.8l-4.7-8.5c-.1-.2-.3-.4-.6-.5 0 0-2.4-1.4-3.2-1.1-.7.3-1.2 3-1.2 3-.1.3-.1.6 0 .8l2.7 6.1c.1.3.1.6 0 .9-.8 1.5-3.5 6.4-4.3 6.8s-6.1-1.9-7.5-2.5c-.2-.1-.4-.3-.5-.5l-6.2-11.8c0-.2-.1-.4-.1-.6l.4-8c.1-.2.2-.4.3-.6l5.2-6.1s-.8-2.6-1.6-2.9c-.9-.4-4.1.8-4.1.8-.2 0-.4.2-.6.3l-5.9 6.8c-.2.1-.3.3-.3.4l-1.9 8.7v.5l3.8 9.1c.1.5-.5.9-.9.5l-8.6-7c-.2-.2-.3-.5-.3-.8l.7-9.9c0-.3.2-.6.4-.8l5.7-5.4s.2-2.2-.2-2.7c-.7-.7-3.8-.6-3.8-.6-.3 0-.5 0-.8.2l-7.3 4.9c-.4.3-.7.7-.7 1.2l-1.3 15.4c0 .4.1.9.4 1.2l9.3 9.3c.2.2-.1.7-.5.5-.5-.2-11.9-8.4-11.9-8.4-.4-.3-.5-.8-.5-1.2l1-11.8-3.5 1.2c-.4.1-.6.4-.7.8 0 0-3.1 12.7-2.7 14s14.8 10.3 14.8 10.3c.4.3.2.9-.2.7l-6.6-2.1-.6-1.7-4.3-2.6-2.2 6.4c-.1.6.2 1.1.7 1.3l8.9 2.5c.1.1.3.2.4.2l14.6 13.6c.3.3.4.7.3 1l-4 17.3h-22.6c-1.2 0-2.3 1-2.3 2.3s1 2.3 2.3 2.3h61.6c1.2 0 2.3-1 2.3-2.3s-1.1-2.2-2.3-2.2z"/></svg>