<svg id="Capa_1" enable-background="new 0 0 512.018 512.018" height="100%" viewBox="0 0 512.018 512.018" width="100%" xmlns="http://www.w3.org/2000/svg"><g><path d="m509.079 129.751-31.483-42.766 18.673-52.05c4.273-11.911-7.273-23.457-19.184-19.185l-52.052 18.672-42.764-31.483c-9.835-7.243-23.775-.278-23.892 11.936l-.525 54.805-45.602 32.75c-10.147 7.288-7.432 23.103 4.565 26.588l51.285 14.899 14.9 51.286c3.489 12.008 19.293 14.72 26.588 4.564l32.75-45.602 54.805-.524c12.215-.115 19.178-14.054 11.936-23.89z"/><path d="m176.607 297.412c-5.857-5.857-15.355-5.857-21.213 0l-24.394 24.393 59.213 59.213 24.394-24.394c5.858-5.857 5.858-15.355 0-21.213z"/><path d="m4.394 448.412c-5.858 5.857-5.858 15.355 0 21.213l38 38c5.858 5.858 15.355 5.858 21.213 0l105.393-105.394-59.213-59.213z"/><path d="m327.456 163.35-121.243 121.242 21.213 21.213 121.243-121.243-4.775-16.436z"/></g></svg>