<svg height="512" viewBox="0 0 60 60" width="512" xmlns="http://www.w3.org/2000/svg"><g id="Page-1" fill="none" fill-rule="evenodd"><g id="030---North-Star" fill="rgb(0,0,0)" fill-rule="nonzero" transform="translate(-1 -1)"><path id="Shape" d="m36 17.632-5 11-5-11 4.518-16.266c.0598119-.21684151.2570607-.36704888.482-.36704888s.4221881.15020737.482.36704888z"/><path id="Shape" d="m36 44.368-4.518 16.266c-.0598119.2168415-.2570607.3670489-.482.3670489s-.4221881-.1502074-.482-.3670489l-4.518-16.266 5-11z"/><path id="Shape" d="m60.634 31.482-16.266 4.518-11-5 11-5 16.266 4.518c.2168415.0598119.3670489.2570607.3670489.482s-.1502074.4221881-.3670489.482z"/><path id="Shape" d="m28.632 31-11 5-16.266-4.518c-.21684151-.0598119-.36704888-.2570607-.36704888-.482s.15020737-.4221881.36704888-.482l16.266-4.518z"/><path id="Shape" d="m29 29-11-5-2.808-8.172c-.0625904-.1809082-.016396-.3816735.1189652-.5170348.1353613-.1353612.3361266-.1815556.5170348-.1189652l8.172 2.808z"/><path id="Shape" d="m29 33-5 11-8.172 2.808c-.1809082.0625904-.3816735.016396-.5170348-.1189652-.1353612-.1353613-.1815556-.3361266-.1189652-.5170348l2.808-8.172z"/><path id="Shape" d="m46.172 46.808-8.172-2.808-5-11 11 5 2.808 8.172c.0625904.1809082.016396.3816735-.1189652.5170348-.1353613.1353612-.3361266.1815556-.5170348.1189652z"/><path id="Shape" d="m46.808 15.828-2.808 8.172-11 5 5-11 8.172-2.808c.1809082-.0625904.3816735-.016396.5170348.1189652.1353612.1353613.1815556.3361266.1189652.5170348z"/><path id="Shape" d="m20.99 14.85 2.55.88c.34-.17.69-.33 1.04-.47l.66-2.36c-1.4930136.468739-2.920948 1.1239089-4.25 1.95zm-6.14 6.14c-.8260911 1.329052-1.481261 2.7569864-1.95 4.25l2.36-.66c.14-.35.3-.7.47-1.04zm9.73 25.75c-.35-.14-.7-.3-1.04-.47l-2.55.88c1.329052.8260911 2.7569864 1.481261 4.25 1.95zm22.16-9.32c-.14.35-.3.7-.47 1.04l.88 2.55c.8260911-1.329052 1.481261-2.7569864 1.95-4.25zm.41-16.43-.88 2.55c.17.34.33.69.47 1.04l2.36.66c-.468739-1.4930136-1.1239089-2.920948-1.95-4.25zm-8.69 25.28c-.34.17-.69.33-1.04.47l-.66 2.36c1.4930136-.468739 2.920948-1.1239089 4.25-1.95zm-23.2-8.85-2.36-.66c.468739 1.4930136 1.1239089 2.920948 1.95 4.25l.88-2.55c-.17-.34-.33-.69-.47-1.04zm21.5-24.52.66 2.36c.35.14.7.3 1.04.47l2.55-.88c-1.329052-.8260911-2.7569864-1.481261-4.25-1.95z"/></g></g></svg>