<svg id="Layer_1" enable-background="new 0 0 512 512" height="100%" viewBox="0 0 512 512" width="100%" xmlns="http://www.w3.org/2000/svg"><g id="_x32_4_Pipe"><g><g><path d="m377.011 241.497s0 .053-.053.053c-15.734 44.695-72.321 192.75-139.095 221.07-39.439 16.768-82.495 20.97-120.215 1.013-42.668-22.56-73.441-72.854-91.681-149.548 1.221-.305 165.962-61.922 169.015-63.521l18.294 32.694c8.138 16.263 22.608 20.27 41.227.694 51.264-53.683 46.35-83.754 66.828-82.507 12.32.533 35.628 4.48 52.694 24.694 3.573 4.212 4.747 10.078 2.986 15.358z"/></g><g><path d="m187.729 242.191-163.628 61.333c-9.201 3.4-18.153.189-22.187-8.32-5.12-10.827-.32-27.521 18.72-38.453 56.534-32.801 126.829-51.148 148.695-51.788 19.36-.694 28.213 8.267 29.92 16.853 1.707 8.642-3.147 17.228-11.52 20.375z"/></g><g><path d="m512 50.669c0 6.4-3.84 12.106-9.814 14.453-26.401 10.401-89.335 45.654-122.295 151.576-19.36-21.067-44.32-25.28-57.76-25.921 17.974-35.2 72.747-126.561 169.922-155.095 10.011-2.967 19.947 4.626 19.947 14.987z"/></g></g></g></svg>