<svg id="Capa_1" enable-background="new 0 0 507.994 507.994" height="100%" viewBox="0 0 507.994 507.994" width="100%" xmlns="http://www.w3.org/2000/svg"><g><path d="m276.33 199.503v-17.137l-22.333-14.635-22.333 14.635v17.137c0 15.346 8.791 29.096 22.333 35.64 13.542-6.544 22.333-20.294 22.333-35.64z"/><path d="m450.33 316.131v-.351l57.664-60.79-40.201-107.597-8.188-1.637c-72.992-14.599-144.866-48.074-192.261-89.544l-13.348-11.681-13.347 11.68c-47.396 41.471-119.27 74.946-192.262 89.545l-8.188 1.637-40.199 107.597 57.664 60.79v.351zm-248.666-116.628v-33.346l52.333-34.293 52.333 34.293v33.346c0 30.005-19.125 56.539-47.59 66.028l-4.743 1.581-4.743-1.581c-28.465-9.489-47.59-36.023-47.59-66.028z"/><path d="m57.664 346.131v27.667c0 49.442 40.224 89.667 89.666 89.667h213.334c49.442 0 89.666-40.224 89.666-89.667v-27.667z"/></g></svg>