<svg id="Layer_1" enable-background="new 0 0 32 32" height="512" viewBox="0 0 32 32" width="512" xmlns="http://www.w3.org/2000/svg"><path d="m10.358 4.729c.213.155.269.45.128.672-.312.49-.243 1.12.167 1.53.48.481 1.263.48 1.744 0 .255-.255.382-.614.348-.984-.013-.148.04-.294.145-.399s.249-.16.399-.145c.374.037.729-.093.984-.348.48-.481.48-1.263 0-1.744-.411-.41-1.039-.48-1.53-.168-.222.14-.517.085-.672-.128-.442-.608-1.328-.694-1.867-.154s-.454 1.425.154 1.868z"/><path d="m17.625 10.29c.329.297.553.68.659 1.096.274.085.566.072.831-.037.126-.456.394-.848.752-1.138-.003-.187.006-.365.147-.505.105-.105.25-.157.399-.145.367.033.73-.093.985-.348.48-.481.48-1.263 0-1.744-.41-.41-1.04-.478-1.53-.167-.225.14-.519.084-.673-.13-.43-.597-1.344-.675-1.866-.152-.261.261-.381.623-.347.987.616.561.893 1.441.643 2.283z"/><path d="m9.275 14.702c.945-.399 2.003-.323 2.875.206.286-.314.616-.569.964-.796.116-.192.184-.407.184-.634 0-.58-.396-1.074-.964-1.201-.258-.058-.427-.307-.384-.568.121-.742-.458-1.427-1.211-1.427-.761 0-1.328.687-1.211 1.43.041.26-.127.508-.385.565-.567.127-.963.621-.963 1.201-.001.632.47 1.155 1.095 1.224z"/><path d="m13.945 12.275c.106-.032.208-.077.304-.136.126-.078.282-.096.422-.049.141.047.253.154.308.292.135.347.409.611.751.726.645.214 1.345-.134 1.56-.779.184-.55-.036-1.145-.534-1.444-.226-.136-.307-.425-.185-.659.348-.667.022-1.499-.697-1.739-.72-.241-1.48.228-1.601.97-.042.262-.283.443-.544.418-.435-.044-.837.148-1.093.482.196.319.321.685.335 1.083.407.178.742.472.974.835z"/><path d="m15.801 14.304c-1.197 0-2.29.536-3.043 1.456l1.305 13.74h3.478l1.305-13.74c-.755-.92-1.848-1.456-3.045-1.456z"/><path d="m9.409 15.749c-.644.371-1.262 1.166-1.066 2.281l2.208 11.47h2.507l-1.295-13.641c-.83-.593-1.748-.459-2.354-.11z"/><path d="m20.05 12.136c.042.262-.126.511-.385.568-.558.125-.963.63-.963 1.201 0 .141.036.277.082.409.236.18.464.372.668.595.986-.598 2.211-.621 3.241-.026.094.054.178.119.265.181.504-.161.864-.614.864-1.158 0-.571-.405-1.076-.963-1.201-.257-.057-.426-.305-.385-.565.117-.744-.452-1.43-1.211-1.43-.756-.001-1.334.684-1.213 1.426z"/><path d="m22.193 15.749c-.606-.349-1.524-.484-2.354.11l-1.295 13.641h2.508l2.209-11.479c.194-1.107-.425-1.901-1.068-2.272z"/></svg>