<svg xmlns="http://www.w3.org/2000/svg" version="1.1" xmlns:xlink="http://www.w3.org/1999/xlink" xmlns:svgjs="http://svgjs.com/svgjs" width="512" height="512" x="0" y="0" viewBox="0 0 479.923 479.923" style="enable-background:new 0 0 512 512" xml:space="preserve" class=""><g transform="matrix(1,0,0,1,0,0)"><path d="M186.411 273.03c-2.951-4.759-9.872-4.757-12.821 0-.1 0 .631-1.02-8.021 12.935-3.115 5.024.488 11.518 6.411 11.518h16.041c5.912 0 9.532-6.484 6.41-11.518zM257.357 159.205c-22.892 0-42.838 17.309-42.838 50.257 0 33.421 82 24.646 82-10 .001-27.66-20.3-40.257-39.162-40.257zM140.326 171.101C117.628 148.326 72 158.505 72 199.462c0 34.705 82 43.491 82 10 0-16.121-4.729-29.386-13.674-38.361z" fill="#000000" data-original="#000000" class=""></path><path d="M367.803 181.344C359.486 87.39 280.343 13.462 184.26 13.462 82.66 13.462 0 96.121 0 197.722c0 44.2 16.24 82.46 47.01 110.9.536 25.203 19.406 45.848 43.6 49.32 3.58 21.82 22.57 38.52 45.39 38.52h3a4 4 0 0 0 4-4v-41.726c0-4.261 3.216-7.982 7.468-8.257a8 8 0 0 1 8.532 7.983v42a4 4 0 0 0 4 4h42a4 4 0 0 0 4-4v-41.726c0-4.261 3.216-7.982 7.468-8.257a8 8 0 0 1 8.532 7.983v42a4 4 0 0 0 4 4h3a45.744 45.744 0 0 0 25.923-8.014c2.776-1.901 4.021-5.341 3.199-8.604a135.111 135.111 0 0 1-2.862-14.892c-6.088-45.146 6.875-91.334 58.97-139.84 14.26-13.272 30.475-25.599 47-36.358 2.472-1.61 3.833-4.471 3.573-7.41zM56 199.462c0-75.461 114-77.694 114 10 0 55.854-114 45.201-114-10zm132.021 114.021H171.98c-18.466 0-29.741-20.251-20.009-35.949l8.021-12.936c9.218-14.866 30.821-14.832 40.018 0l8.02 12.935c9.729 15.693-1.539 35.95-20.009 35.95zm10.499-104.021c0-88.188 114-85.013 114-10 0 55.15-114 65.903-114 10z" fill="#000000" data-original="#000000" class=""></path><path d="M477.6 286.772c-.85 8.19-5.76 15.26-13.14 18.9 0 .089-2.332 1.104-6.847 3.538-2.681 1.445-2.78 5.186-.253 6.887 8.508 5.729 12.62 16.512 9.6 26.764-11.28 38.4-29.38 65.46-53.78 80.42-25.299 15.517-56.145 22.587-84.29 12.92-.89 7.5-1.52 15.06-1.9 22.66-.21 4.28-3.75 7.6-7.98 7.6a8.003 8.003 0 0 1-8-8.4c3.439-68.806 27.018-136.718 71.91-195.45 2.63-3.427 2.094-8.377-1.31-11.12-3.49-2.81-8.62-2.21-11.35 1.34a365.452 365.452 0 0 0-68.804 152.103c-1.02 5.191-7.765 6.641-10.798 2.307-12.318-17.603-18.567-41.074-17.658-68.05 2.52-74.23 84.38-136.23 160.14-169.5 20.084-8.814 42.825 4.589 44.78 26.39 2.78 30.72 2.66 62.081-.32 90.691z" fill="#000000" data-original="#000000" class=""></path></g></svg>