<svg xmlns="http://www.w3.org/2000/svg" height="511pt" version="1.1" viewBox="0 0 511.98647 511" width="511pt">
<g id="surface1">
<path d="M 469.625 184.375 C 457.089844 184.375 445.089844 189.976562 437.089844 199.574219 L 327.226562 185.175781 L 274.425781 81.707031 C 295.757812 71.574219 304.824219 46.242188 294.691406 24.90625 C 284.558594 3.574219 259.226562 -5.492188 237.890625 4.640625 C 216.558594 14.773438 207.492188 40.109375 217.625 61.441406 C 221.089844 68.90625 226.691406 75.308594 233.890625 79.574219 L 182.425781 187.042969 L 78.425781 203.574219 C 65.359375 183.839844 38.957031 178.507812 19.226562 191.308594 C -0.507812 204.375 -5.84375 230.773438 6.957031 250.242188 C 19.757812 269.707031 46.425781 275.308594 66.15625 262.507812 C 67.492188 261.707031 68.824219 260.640625 70.15625 259.574219 L 139.492188 325.175781 L 123.492188 426.773438 C 100.023438 428.109375 81.890625 448.109375 83.226562 471.839844 C 84.558594 495.308594 104.558594 513.441406 128.292969 512.109375 C 151.757812 510.773438 169.890625 490.773438 168.558594 467.042969 C 168.292969 463.839844 167.757812 460.90625 166.957031 457.707031 L 257.890625 408.375 L 363.492188 461.976562 C 359.492188 485.175781 375.226562 507.308594 398.425781 511.308594 C 421.625 515.308594 443.757812 499.574219 447.757812 476.375 C 451.757812 453.175781 436.023438 431.042969 412.824219 427.042969 C 406.425781 425.976562 400.023438 426.242188 393.625 428.109375 L 373.890625 321.707031 L 438.957031 256.375 C 455.492188 273.175781 482.425781 273.441406 499.226562 256.90625 C 516.023438 240.375 516.292969 213.441406 499.757812 196.640625 C 492.023438 188.90625 481.089844 184.375 469.625 184.375 Z M 256.292969 384.375 C 209.089844 384.375 170.957031 346.242188 170.957031 299.042969 C 170.957031 251.839844 209.089844 213.707031 256.292969 213.707031 C 303.492188 213.707031 341.625 251.839844 341.625 299.042969 C 341.625 346.242188 303.492188 384.375 256.292969 384.375 Z M 256.292969 384.375 " style=" stroke:none;fill-rule:nonzero;fill:rgb(0%,0%,0%);fill-opacity:1;" />
<path d="M 320.292969 299.042969 C 320.292969 263.695312 291.636719 235.042969 256.292969 235.042969 C 220.945312 235.042969 192.292969 263.695312 192.292969 299.042969 C 192.292969 334.386719 220.945312 363.042969 256.292969 363.042969 C 291.636719 363.042969 320.292969 334.386719 320.292969 299.042969 Z M 320.292969 299.042969 " style=" stroke:none;fill-rule:nonzero;fill:rgb(0%,0%,0%);fill-opacity:1;" />
</g>
</svg>