<svg id="Layer_3" height="512" viewBox="0 0 64 64" width="512" xmlns="http://www.w3.org/2000/svg" data-name="Layer 3"><path d="m29.931 61h4.138l.143-2h-4.424z"/><path d="m29.645 57h4.71l.571-8h-5.852z"/><path d="m27.875 39.191.432 3.809h7.387l.4-3.557-4.114-6.582zm5.125 1.809h-2v-4h2z"/><path d="m39.707 43.708a4.387 4.387 0 0 1 -3.121 1.292h-9.172a4.387 4.387 0 0 1 -3.121-1.292 2.4 2.4 0 0 0 -1.707-.708h-1.2l.193.581a4.994 4.994 0 0 0 4.745 3.419h11.352a4.994 4.994 0 0 0 4.743-3.418l.193-.582h-1.2a2.4 2.4 0 0 0 -1.705.708z"/><path d="m31.161 30.456a1.047 1.047 0 0 1 .848-.456 1 1 0 0 1 .839.47l3.613 5.782 2.5-22-6.961-10.452-6.965 10.343 2.485 21.921z"/><path d="m56 22.979a5.443 5.443 0 0 1 -3.616-4.093l-.384-1.886-.379 1.886a5.443 5.443 0 0 1 -3.616 4.093h-.005a5.443 5.443 0 0 1 3.618 4.1l.382 1.921.382-1.918a5.443 5.443 0 0 1 3.618-4.101z"/><path d="m12.379 28.886-.379-1.886-.379 1.886a5.443 5.443 0 0 1 -3.616 4.093h-.005a5.443 5.443 0 0 1 3.618 4.1l.382 1.921.382-1.918a5.443 5.443 0 0 1 3.618-4.101h-.005a5.443 5.443 0 0 1 -3.616-4.095z"/></svg>