<svg height="100%" viewBox="0 0 64 64" width="100%" xmlns="http://www.w3.org/2000/svg"><g id="TV_Show" data-name="TV Show"><path d="m34.4 17.50066h-8.8a4.49313 4.49313 0 0 1 2.19-3.01 4.37275 4.37275 0 0 1 2.21-.59 4.46125 4.46125 0 0 1 2.15.55 4.50471 4.50471 0 0 1 2.25 3.05z"/><path d="m43.32 6.50066-8.21 7.88a6.33048 6.33048 0 0 0 -1.47-1.36l8.29-7.96a1.00072 1.00072 0 1 1 1.39 1.44z"/><path d="m17.96 5.06066 8.34 8a6.17526 6.17526 0 0 0 -1.46 1.38l-8.26-7.94a.99725.99725 0 1 1 1.38-1.44z"/><path d="m12.02 56.50066h4.17l-.32 2.22a.47064.47064 0 0 1 -.42.5h-3.33a.47064.47064 0 0 1 -.42-.5z"/><path d="m52.3 58.7207a.47064.47064 0 0 1 -.42.5l-3.33-.01a.46418.46418 0 0 1 -.42-.5l-.32-2.21h4.17z"/><path d="m24.952 41.917 8.05-4.92-8.05-4.92z"/><path d="m44.5835 24.49694h-31.875a1.001 1.001 0 0 0 -1 1v23a1.001 1.001 0 0 0 1 1h31.875a1.001 1.001 0 0 0 1-1v-23a1.001 1.001 0 0 0 -1-1zm-9.99268 13.87306-9.19043 5.61719h-.00049a1.60917 1.60917 0 0 1 -2.44824-1.373v-11.23444a1.60917 1.60917 0 0 1 2.44824-1.373l9.19141 5.61718a1.60891 1.60891 0 0 1 -.00049 2.7461z"/><circle cx="51.584" cy="34.434" r="1"/><path d="m52 19.50066h-40a4.99545 4.99545 0 0 0 -5 5v25a5.00181 5.00181 0 0 0 5 5h40a5.00181 5.00181 0 0 0 5-5v-25a4.99545 4.99545 0 0 0 -5-5zm-4.4165 28.99628a3.00328 3.00328 0 0 1 -3 3h-31.875a3.00328 3.00328 0 0 1 -3-3v-23a3.00328 3.00328 0 0 1 3-3h31.875a3.00328 3.00328 0 0 1 3 3zm6 .9375h-4a1 1 0 0 1 0-2h4a1 1 0 0 1 0 2zm0-4h-4a1 1 0 0 1 0-2h4a1 1 0 0 1 0 2zm0-4h-4a1 1 0 0 1 0-2h4a1 1 0 0 1 0 2zm-2-4a3 3 0 1 1 3-3 3.00328 3.00328 0 0 1 -3 3zm0-6.875a3 3 0 1 1 3-3 3.00328 3.00328 0 0 1 -3 3z"/><circle cx="51.584" cy="27.559" r="1"/></g></svg>