<svg xmlns="http://www.w3.org/2000/svg" version="1.1" xmlns:xlink="http://www.w3.org/1999/xlink" xmlns:svgjs="http://svgjs.com/svgjs" width="80" height="80" x="0" y="0" viewBox="0 0 32 32" style="enable-background:new 0 0 512 512" xml:space="preserve" class=""><circle r="16" cx="16" cy="16" fill="transparent" shape="circle" transform="matrix(1,0,0,1,0,0)"></circle><g transform="matrix(0.7,0,0,0.7,4.800000286102296,4.800000000000001)"><path d="M13.094 6.444H9.053a2.503 2.503 0 0 0-2.5 2.5v4.042c0 1.378 1.122 2.5 2.5 2.5h4.042c1.378 0 2.5-1.122 2.5-2.5V8.944a2.504 2.504 0 0 0-2.501-2.5zm1.5 6.542c0 .827-.673 1.5-1.5 1.5H9.053c-.827 0-1.5-.673-1.5-1.5V8.944c0-.827.673-1.5 1.5-1.5h4.042c.827 0 1.5.673 1.5 1.5v4.042zM13.094 16.514H9.053a2.503 2.503 0 0 0-2.5 2.5v4.042c0 1.378 1.122 2.5 2.5 2.5h4.042c1.378 0 2.5-1.122 2.5-2.5v-4.042a2.504 2.504 0 0 0-2.501-2.5zm1.5 6.542c0 .827-.673 1.5-1.5 1.5H9.053c-.827 0-1.5-.673-1.5-1.5v-4.042c0-.827.673-1.5 1.5-1.5h4.042c.827 0 1.5.673 1.5 1.5v4.042zM22.947 16.514h-4.042a2.503 2.503 0 0 0-2.5 2.5v4.042c0 1.378 1.122 2.5 2.5 2.5h4.042c1.379 0 2.5-1.122 2.5-2.5v-4.042c0-1.378-1.121-2.5-2.5-2.5zm1.5 6.542c0 .827-.673 1.5-1.5 1.5h-4.042c-.827 0-1.5-.673-1.5-1.5v-4.042c0-.827.673-1.5 1.5-1.5h4.042c.827 0 1.5.673 1.5 1.5zM22.947 6.444h-4.042a2.503 2.503 0 0 0-2.5 2.5v4.042c0 1.378 1.122 2.5 2.5 2.5h4.042c1.379 0 2.5-1.122 2.5-2.5V8.944c0-1.379-1.121-2.5-2.5-2.5zm1.5 6.542c0 .827-.673 1.5-1.5 1.5h-4.042c-.827 0-1.5-.673-1.5-1.5V8.944c0-.827.673-1.5 1.5-1.5h4.042c.827 0 1.5.673 1.5 1.5z" fill="#DCC786" data-original="#000000" class=""></path><path d="M22.792 20.535h-1.365V19.17a.5.5 0 0 0-1 0v1.365h-1.365a.5.5 0 0 0 0 1h1.365V22.9a.5.5 0 0 0 1 0v-1.365h1.365a.5.5 0 0 0 0-1z" fill="#0AA3E9" data-original="#000000" class=""></path></g></svg>
