<svg id="Layer_1" enable-background="new 0 0 32 32" height="32" viewBox="0 0 32 32" width="32" xmlns="http://www.w3.org/2000/svg"><path d="m23 11.5c-1.378418 0-2.5 1.121582-2.5 2.5s1.121582 2.5 2.5 2.5 2.5-1.121582 2.5-2.5-1.121582-2.5-2.5-2.5zm0 3c-.2758789 0-.5-.2241211-.5-.5s.2241211-.5.5-.5.5.2241211.5.5-.2241211.5-.5.5zm-14-3c-1.378418 0-2.5 1.121582-2.5 2.5s1.121582 2.5 2.5 2.5 2.5-1.121582 2.5-2.5-1.121582-2.5-2.5-2.5zm0 3c-.2758789 0-.5-.2241211-.5-.5s.2241211-.5.5-.5.5.2241211.5.5-.2241211.5-.5.5zm7-3c-1.378418 0-2.5 1.121582-2.5 2.5s1.121582 2.5 2.5 2.5 2.5-1.121582 2.5-2.5-1.121582-2.5-2.5-2.5zm0 3c-.2758789 0-.5-.2241211-.5-.5s.2241211-.5.5-.5.5.2241211.5.5-.2241211.5-.5.5zm5-11.5h-10c-4.9624023 0-9 4.0375977-9 9v5c0 2.4140625.9428711 4.6806641 2.7177734 6.4399414l.1259766.1049805-.8256836 4.2651367c-.0688477.3554688.0600586.7202148.3364258.9536133.1835937.1552734.4130859.2363281.6455078.2363281.1181641 0 .2368164-.0209961.3510742-.0634766l7.8300781-2.9365234h7.8188477c4.9624023 0 9-4.0375977 9-9v-5c0-4.9624023-4.0375977-9-9-9zm7 14c0 3.8598633-3.1401367 7-7 7h-8c-.1201172 0-.2387695.0214844-.3510742.0634766l-6.3276367 2.3730469.5981445-3.090332c.0688477-.3569336-.0615234-.7236328-.340332-.9570313l-.5146484-.4257813c-1.331543-1.3227539-2.0644532-3.0859375-2.0644532-4.9633789v-5c0-3.8598633 3.1401367-7 7-7h10c3.8598633 0 7 3.1401367 7 7z"/></svg>