<svg class="animated" id="freepik_stories-sailor" xmlns="http://www.w3.org/2000/svg" viewBox="0 0 500 500" version="1.1" xmlns:xlink="http://www.w3.org/1999/xlink" xmlns:svgjs="http://svgjs.com/svgjs"><style>svg#freepik_stories-sailor:not(.animated) .animable {opacity: 0;}svg#freepik_stories-sailor.animated #freepik--Sea--inject-61 {animation: 6s Infinite  linear shake;animation-delay: 0s;}            @keyframes shake {                10%, 90% {                    transform: translate3d(-1px, 0, 0);                  }                  20%, 80% {                    transform: translate3d(2px, 0, 0);                  }                  30%, 50%, 70% {                    transform: translate3d(-4px, 0, 0);                  }                  40%, 60% {                    transform: translate3d(4px, 0, 0);                  }            }        .animator-hidden { display: none; }</style><g id="freepik--background-simple--inject-61" class="animable animator-hidden" style="transform-origin: 247.181px 260.24px;"><path d="M34.43,342c-46.68-101.66-5.88-222.42,93.28-274.19A349.59,349.59,0,0,1,176.36,47c117-40,217,40,248,110s65,153,52,207-49,116-144,120-123-59-175-70-91-3-122-70Z" style="fill: #757575; transform-origin: 247.181px 260.24px;" id="el5wan23r7g03" class="animable"></path><g id="ell2q89v63ze"><path d="M34.43,342c-46.68-101.66-5.88-222.42,93.28-274.19A349.59,349.59,0,0,1,176.36,47c117-40,217,40,248,110s65,153,52,207-49,116-144,120-123-59-175-70-91-3-122-70Z" style="fill: rgb(255, 255, 255); opacity: 0.7; transform-origin: 247.181px 260.24px;" class="animable" id="elpr1ijb013pa"></path></g></g><g id="freepik--Clouds--inject-61" class="animable animator-hidden" style="transform-origin: 242.37px 114.19px;"><path d="M465.94,104.66c.64-3.65,1.57-12.72-3.94-17.16-7-5.65-12,4.51-18.07-3.39S436,59,418,59.26,398.52,69.65,398.52,73s-5.42,5.87-6.55,5.87-7.45-2.94-9.71,3.62-.73,10.34-4.32,10.47-8.05-4.75-12.93-2.31-4.89,7.65-6.92,9.46-5.43-1.36-9.94.45c-2.74,1.09-3.57,2.85-3.8,4.06Z" style="fill: none; stroke: rgb(38, 50, 56); stroke-miterlimit: 10; transform-origin: 405.39px 81.9585px;" id="elzbr47ogvr4i" class="animable"></path><path d="M256.63,106.1c.45-2.56,1.1-8.92-2.77-12-4.91-4-8.39,3.17-12.67-2.37S235.64,74.1,223,74.26s-13.63,7.29-13.63,9.66S205.54,88,204.75,88s-5.23-2.06-6.81,2.54-.51,7.25-3,7.35-5.65-3.34-9.07-1.62-3.43,5.36-4.86,6.62-3.8-1-7,.32a3.87,3.87,0,0,0-2.66,2.85Z" style="fill: none; stroke: rgb(38, 50, 56); stroke-miterlimit: 10; transform-origin: 214.162px 90.1792px;" id="elr4r2ok79gy8" class="animable"></path><path d="M77.54,106.1c.31-1.78.76-6.19-1.92-8.35-3.41-2.75-5.83,2.2-8.8-1.65S63,83.89,54.18,84s-9.46,5.06-9.46,6.71-2.64,2.86-3.19,2.86-3.63-1.43-4.73,1.76-.35,5-2.1,5.1-3.92-2.32-6.29-1.13S26,103,25,103.9s-2.64-.66-4.84.22a2.73,2.73,0,0,0-1.85,2Z" style="fill: none; stroke: rgb(38, 50, 56); stroke-miterlimit: 10; transform-origin: 48.0434px 95.0595px;" id="elbp8itd4srpl" class="animable"></path><path d="M395.63,175.1c.45-2.56,1.1-8.92-2.77-12-4.91-4-8.39,3.17-12.67-2.37S374.64,143.1,362,143.26s-13.63,7.29-13.63,9.66-3.8,4.12-4.59,4.12-5.23-2.06-6.81,2.54-.51,7.25-3,7.35-5.65-3.34-9.07-1.62-3.43,5.36-4.86,6.62-3.8-1-7,.32a3.87,3.87,0,0,0-2.66,2.85Z" style="fill: none; stroke: rgb(38, 50, 56); stroke-miterlimit: 10; transform-origin: 353.177px 159.179px;" id="el1tkcrh3qs54i" class="animable"></path><path d="M412.5,59.52c-1.35-2.69-2.59-6.3-7.26-6.24-5.73.07-6.15,3.29-6.15,4.36S397.37,59.5,397,59.5s-2.36-.93-3.07,1.15-.24,3.27-1.37,3.32-2.55-1.51-4.1-.74-1.55,2.43-2.19,3-1.72-.43-3.15.14a1.77,1.77,0,0,0-1.2,1.29h17.26" style="fill: none; stroke: rgb(38, 50, 56); stroke-miterlimit: 10; transform-origin: 397.21px 60.4696px;" id="elho2gdw0b8ys" class="animable"></path></g><g id="freepik--Sea--inject-61" class="animable" style="transform-origin: 246.5px 351.67px;"><line x1="10" y1="297.76" x2="483" y2="297.76" style="fill: none; stroke: rgb(38, 50, 56); stroke-miterlimit: 10; transform-origin: 246.5px 297.76px;" id="elzkfijwr9xcc" class="animable"></line><line x1="474" y1="333.58" x2="422" y2="333.58" style="fill: none; stroke: rgb(38, 50, 56); stroke-miterlimit: 10; transform-origin: 448px 333.58px;" id="elwvqjl149wfj" class="animable"></line><line x1="337" y1="336.58" x2="394" y2="336.58" style="fill: none; stroke: rgb(38, 50, 56); stroke-miterlimit: 10; transform-origin: 365.5px 336.58px;" id="elg6sa5jo7rv6" class="animable"></line><line x1="385" y1="373.58" x2="438" y2="373.58" style="fill: none; stroke: rgb(38, 50, 56); stroke-miterlimit: 10; transform-origin: 411.5px 373.58px;" id="elhqixbvpiqnr" class="animable"></line><line x1="459" y1="365.58" x2="326" y2="365.58" style="fill: none; stroke: rgb(38, 50, 56); stroke-miterlimit: 10; transform-origin: 392.5px 365.58px;" id="ellpeq4jdxgp" class="animable"></line><line x1="317" y1="375.58" x2="364" y2="375.58" style="fill: none; stroke: rgb(38, 50, 56); stroke-miterlimit: 10; transform-origin: 340.5px 375.58px;" id="elfvpyf0as3q6" class="animable"></line><line x1="398" y1="352.58" x2="271" y2="352.58" style="fill: none; stroke: rgb(38, 50, 56); stroke-miterlimit: 10; transform-origin: 334.5px 352.58px;" id="elg6g1p4324pc" class="animable"></line><line x1="320" y1="336.58" x2="312" y2="336.58" style="fill: none; stroke: rgb(38, 50, 56); stroke-miterlimit: 10; transform-origin: 316px 336.58px;" id="el6ufcuk2bolk" class="animable"></line><line x1="191" y1="372.58" x2="290" y2="372.58" style="fill: none; stroke: rgb(38, 50, 56); stroke-miterlimit: 10; transform-origin: 240.5px 372.58px;" id="elojvgros83gs" class="animable"></line><line x1="462" y1="405.58" x2="400" y2="405.58" style="fill: none; stroke: rgb(38, 50, 56); stroke-miterlimit: 10; transform-origin: 431px 405.58px;" id="elj2pxthbl05m" class="animable"></line><line x1="479" y1="327.58" x2="463" y2="327.58" style="fill: none; stroke: rgb(38, 50, 56); stroke-miterlimit: 10; transform-origin: 471px 327.58px;" id="el8fqnsu0bdyi" class="animable"></line><line x1="362" y1="327.58" x2="282" y2="327.58" style="fill: none; stroke: rgb(38, 50, 56); stroke-miterlimit: 10; transform-origin: 322px 327.58px;" id="elpehdqdcbnh9" class="animable"></line><line x1="214" y1="357.58" x2="198" y2="357.58" style="fill: none; stroke: rgb(38, 50, 56); stroke-miterlimit: 10; transform-origin: 206px 357.58px;" id="elqq9v7zjck2f" class="animable"></line><line x1="233" y1="343.58" x2="189" y2="343.58" style="fill: none; stroke: rgb(38, 50, 56); stroke-miterlimit: 10; transform-origin: 211px 343.58px;" id="elhrsnwdusa4v" class="animable"></line><line x1="91" y1="347.58" x2="174" y2="347.58" style="fill: none; stroke: rgb(38, 50, 56); stroke-miterlimit: 10; transform-origin: 132.5px 347.58px;" id="el5efjziqmt33" class="animable"></line><line x1="170" y1="371.58" x2="162" y2="371.58" style="fill: none; stroke: rgb(38, 50, 56); stroke-miterlimit: 10; transform-origin: 166px 371.58px;" id="els2j2n7nzgm" class="animable"></line><line x1="79" y1="367.58" x2="101" y2="367.58" style="fill: none; stroke: rgb(38, 50, 56); stroke-miterlimit: 10; transform-origin: 90px 367.58px;" id="elnrht5oqul3s" class="animable"></line><line x1="20" y1="350.58" x2="60" y2="350.58" style="fill: none; stroke: rgb(38, 50, 56); stroke-miterlimit: 10; transform-origin: 40px 350.58px;" id="elx8ubk6n0dwn" class="animable"></line><line x1="28" y1="342.58" x2="47" y2="342.58" style="fill: none; stroke: rgb(38, 50, 56); stroke-miterlimit: 10; transform-origin: 37.5px 342.58px;" id="el4dez65m8v9j" class="animable"></line><line x1="349" y1="397.58" x2="226" y2="397.58" style="fill: none; stroke: rgb(38, 50, 56); stroke-miterlimit: 10; transform-origin: 287.5px 397.58px;" id="el6nktrqunkgv" class="animable"></line></g><g id="freepik--ship-2--inject-61" class="animable" style="transform-origin: 269.73px 261.843px;"><rect x="136.4" y="278.16" width="10.29" height="18.13" style="fill: rgb(255, 255, 255); stroke: rgb(38, 50, 56); stroke-miterlimit: 10; transform-origin: 141.545px 287.225px;" id="elbzu1ax9bcn" class="animable"></rect><rect x="143.04" y="286.21" width="31.93" height="7.76" style="fill: rgb(255, 255, 255); stroke: rgb(38, 50, 56); stroke-miterlimit: 10; transform-origin: 159.005px 290.09px;" id="el695zediy1bg" class="animable"></rect><polyline points="196.6 271 196.6 234.52 204.21 234.52 211.81 270.55" style="fill: none; stroke: rgb(38, 50, 56); stroke-miterlimit: 10; transform-origin: 204.205px 252.76px;" id="elnwvibwr1x5s" class="animable"></polyline><line x1="196.78" y1="242.88" x2="205.85" y2="242.88" style="fill: none; stroke: rgb(38, 50, 56); stroke-miterlimit: 10; transform-origin: 201.315px 242.88px;" id="elbdjkt53haqo" class="animable"></line><line x1="196.92" y1="249.58" x2="206.97" y2="249.58" style="fill: none; stroke: rgb(38, 50, 56); stroke-miterlimit: 10; transform-origin: 201.945px 249.58px;" id="el3nztbe0xdh8" class="animable"></line><line x1="196.64" y1="257.82" x2="209.2" y2="257.82" style="fill: none; stroke: rgb(38, 50, 56); stroke-miterlimit: 10; transform-origin: 202.92px 257.82px;" id="elb7dd0u5b7r" class="animable"></line><line x1="196.92" y1="264.1" x2="210.46" y2="264.1" style="fill: none; stroke: rgb(38, 50, 56); stroke-miterlimit: 10; transform-origin: 203.69px 264.1px;" id="els7ud7k85akc" class="animable"></line><polyline points="204.74 236.74 197.89 242.74 205.71 249.44 197.89 257.82 208.5 264.24 199.99 269.83" style="fill: none; stroke: rgb(38, 50, 56); stroke-miterlimit: 10; transform-origin: 203.195px 253.285px;" id="elcr52cgw4p5s" class="animable"></polyline><polygon points="190.6 262.94 180.66 262.94 177.35 281.51 193.91 281.51 190.6 262.94" style="fill: rgb(255, 255, 255); stroke: rgb(38, 50, 56); stroke-miterlimit: 10; transform-origin: 185.63px 272.225px;" id="elzcdzsen7aj" class="animable"></polygon><rect x="194.81" y="269.43" width="18.13" height="6.49" style="fill: rgb(255, 255, 255); stroke: rgb(38, 50, 56); stroke-miterlimit: 10; transform-origin: 203.875px 272.675px;" id="el0963xfmuy9b" class="animable"></rect><rect x="181.83" y="273.68" width="31.55" height="8.5" style="fill: rgb(255, 255, 255); stroke: rgb(38, 50, 56); stroke-miterlimit: 10; transform-origin: 197.605px 277.93px;" id="el26ocsmkpid4" class="animable"></rect><rect x="167.21" y="282.04" width="54.01" height="14.92" style="fill: rgb(255, 255, 255); stroke: rgb(38, 50, 56); stroke-miterlimit: 10; transform-origin: 194.215px 289.5px;" id="elj5fq9vu2edb" class="animable"></rect><rect x="224.27" y="286.21" width="25.59" height="7.76" style="fill: rgb(255, 255, 255); stroke: rgb(38, 50, 56); stroke-miterlimit: 10; transform-origin: 237.065px 290.09px;" id="elx1bgqurujd" class="animable"></rect><rect x="165.41" y="279.65" width="58.48" height="2.69" style="fill: rgb(255, 255, 255); stroke: rgb(38, 50, 56); stroke-miterlimit: 10; transform-origin: 194.65px 280.995px;" id="elbr055lg7yrt" class="animable"></rect><polygon points="262.84 272.79 267.09 256.23 287.01 256.23 296.86 260.25 307.37 260.25 316.77 271.44 262.84 272.79" style="fill: rgb(255, 255, 255); stroke: rgb(38, 50, 56); stroke-miterlimit: 10; transform-origin: 289.805px 264.51px;" id="elakwhyrkhpu" class="animable"></polygon><path d="M255.23,295.46l3.28-20.59-3-3.87h66.54l13.72,12.53h28.35l2.39,5.37L351.91,291l-3.58,4.47S254.33,294.57,255.23,295.46Z" style="fill: rgb(255, 255, 255); stroke: rgb(38, 50, 56); stroke-miterlimit: 10; transform-origin: 310.867px 283.235px;" id="elwiqcai3a2l" class="animable"></path><polyline points="313.16 271.2 324.3 283.35 334.8 283.35" style="fill: rgb(255, 255, 255); stroke: rgb(38, 50, 56); stroke-miterlimit: 10; transform-origin: 323.98px 277.275px;" id="elspsxtd52gaa" class="animable"></polyline><line x1="258.51" y1="274.87" x2="316.33" y2="274.87" style="fill: rgb(255, 255, 255); stroke: rgb(38, 50, 56); stroke-miterlimit: 10; transform-origin: 287.42px 274.87px;" id="elef6tz43omih" class="animable"></line><rect x="64.34" y="289.12" width="66.24" height="5.82" style="fill: none; stroke: rgb(38, 50, 56); stroke-miterlimit: 10; transform-origin: 97.46px 292.03px;" id="elufaci37o2t" class="animable"></rect><rect x="390.27" y="279.13" width="23.99" height="1.2" style="fill: rgb(255, 255, 255); stroke: rgb(38, 50, 56); stroke-miterlimit: 10; transform-origin: 402.265px 279.73px;" id="elnpvjr3qlmad" class="animable"></rect><polygon points="377.19 282.84 377.19 278.15 390.49 278.15 392.78 282.51 377.19 282.84" style="fill: rgb(255, 255, 255); stroke: rgb(38, 50, 56); stroke-miterlimit: 10; transform-origin: 384.985px 280.495px;" id="elwto6sx78a0l" class="animable"></polygon><path d="M62.29,294.86l283.39-2.17,3.91-4.77,127.58-3.48s-29.51,20.4-34.71,28.65-5.21,6.94-5.21,6.94H81s-5.64-9.55-11.71-15.19S62.29,294.86,62.29,294.86Z" style="fill: rgb(255, 255, 255); stroke: rgb(38, 50, 56); stroke-miterlimit: 10; transform-origin: 269.73px 302.273px;" id="ely34s9wwv2w" class="animable"></path><polyline points="418.37 286.07 418.37 281.92 475.98 279.96 475.98 284.11" style="fill: none; stroke: rgb(38, 50, 56); stroke-miterlimit: 10; transform-origin: 447.175px 283.015px;" id="el2hc4sm2pzwc" class="animable"></polyline><line x1="423.82" y1="281.92" x2="423.82" y2="286.07" style="fill: none; stroke: rgb(38, 50, 56); stroke-miterlimit: 10; transform-origin: 423.82px 283.995px;" id="elofnw3905ug" class="animable"></line><line x1="429.93" y1="281.92" x2="429.93" y2="286.07" style="fill: none; stroke: rgb(38, 50, 56); stroke-miterlimit: 10; transform-origin: 429.93px 283.995px;" id="elu4kvfzp08s" class="animable"></line><line x1="436.05" y1="281.37" x2="436.05" y2="285.51" style="fill: none; stroke: rgb(38, 50, 56); stroke-miterlimit: 10; transform-origin: 436.05px 283.44px;" id="el2fiae9natia" class="animable"></line><line x1="442.16" y1="281.05" x2="442.16" y2="285.2" style="fill: none; stroke: rgb(38, 50, 56); stroke-miterlimit: 10; transform-origin: 442.16px 283.125px;" id="elyepwwukfxo" class="animable"></line><line x1="448.27" y1="280.65" x2="448.27" y2="284.8" style="fill: none; stroke: rgb(38, 50, 56); stroke-miterlimit: 10; transform-origin: 448.27px 282.725px;" id="elec4l4z2l2fj" class="animable"></line><line x1="454.38" y1="280.75" x2="454.38" y2="284.9" style="fill: none; stroke: rgb(38, 50, 56); stroke-miterlimit: 10; transform-origin: 454.38px 282.825px;" id="elifdrarctgoc" class="animable"></line><line x1="460.49" y1="280.43" x2="460.49" y2="284.58" style="fill: none; stroke: rgb(38, 50, 56); stroke-miterlimit: 10; transform-origin: 460.49px 282.505px;" id="el80tq5r1sim7" class="animable"></line><line x1="466.6" y1="280.34" x2="466.6" y2="284.48" style="fill: none; stroke: rgb(38, 50, 56); stroke-miterlimit: 10; transform-origin: 466.6px 282.41px;" id="elzwtxf7is20m" class="animable"></line><line x1="472.71" y1="279.94" x2="472.71" y2="284.09" style="fill: none; stroke: rgb(38, 50, 56); stroke-miterlimit: 10; transform-origin: 472.71px 282.015px;" id="el1y0qictggry" class="animable"></line><polygon points="265.08 265.4 325.05 265.4 322.07 271 263.29 270.77 265.08 265.4" style="fill: rgb(255, 255, 255); stroke: rgb(38, 50, 56); stroke-miterlimit: 10; transform-origin: 294.17px 268.2px;" id="elzi4nw1cghm" class="animable"></polygon><rect x="266.42" y="239.89" width="5.59" height="16.78" style="fill: rgb(255, 255, 255); stroke: rgb(38, 50, 56); stroke-miterlimit: 10; transform-origin: 269.215px 248.28px;" id="elj68mfrojcx8" class="animable"></rect><circle cx="280.97" cy="232.73" r="5.15" style="fill: rgb(255, 255, 255); stroke: rgb(38, 50, 56); stroke-miterlimit: 10; transform-origin: 280.97px 232.73px;" id="elw5y84em717k" class="animable"></circle><rect x="274.03" y="241.01" width="13.87" height="15.22" style="fill: rgb(255, 255, 255); stroke: rgb(38, 50, 56); stroke-miterlimit: 10; transform-origin: 280.965px 248.62px;" id="el30rwp0h341n" class="animable"></rect><polygon points="286.72 235.41 275.44 235.41 274.03 241.01 288.13 241.01 286.72 235.41" style="fill: rgb(255, 255, 255); stroke: rgb(38, 50, 56); stroke-miterlimit: 10; transform-origin: 281.08px 238.21px;" id="el82n9lp4ywvm" class="animable"></polygon><polygon points="270.45 217.24 267.93 217.24 267.62 239.88 270.76 239.88 270.45 217.24" style="fill: rgb(255, 255, 255); stroke: rgb(38, 50, 56); stroke-miterlimit: 10; transform-origin: 269.19px 228.56px;" id="elctgxfqpuzmv" class="animable"></polygon><rect x="266.75" y="216.48" width="4.77" height="1.3" style="fill: rgb(255, 255, 255); stroke: rgb(38, 50, 56); stroke-miterlimit: 10; transform-origin: 269.135px 217.13px;" id="elat70c03umqe" class="animable"></rect><polygon points="261.77 224.39 261.77 225.36 267.08 226.99 270.76 226.99 273.04 225.36 273.04 224.5 261.77 224.39" style="fill: rgb(255, 255, 255); stroke: rgb(38, 50, 56); stroke-miterlimit: 10; transform-origin: 267.405px 225.69px;" id="el65a4aswu7nk" class="animable"></polygon><line x1="268.16" y1="216.37" x2="268.16" y2="203.58" style="fill: none; stroke: rgb(38, 50, 56); stroke-miterlimit: 10; transform-origin: 268.16px 209.975px;" id="el16n90uim8yg" class="animable"></line><line x1="266.1" y1="206.83" x2="270.22" y2="206.83" style="fill: none; stroke: rgb(38, 50, 56); stroke-miterlimit: 10; transform-origin: 268.16px 206.83px;" id="ellk39kv6j7er" class="animable"></line><polygon points="266.42 239.89 261.88 239.89 261.88 241.62 266.43 243.46 266.42 239.89" style="fill: rgb(255, 255, 255); stroke: rgb(38, 50, 56); stroke-miterlimit: 10; transform-origin: 264.155px 241.675px;" id="eldsqxwg0jhyi" class="animable"></polygon><rect x="299.8" y="267.3" width="3.25" height="2.06" style="fill: rgb(255, 255, 255); stroke: rgb(38, 50, 56); stroke-miterlimit: 10; transform-origin: 301.425px 268.33px;" id="el0xn8s1vx9py9" class="animable"></rect><rect x="304.89" y="267.3" width="3.25" height="2.06" style="fill: rgb(255, 255, 255); stroke: rgb(38, 50, 56); stroke-miterlimit: 10; transform-origin: 306.515px 268.33px;" id="el94ekgt2piln" class="animable"></rect><rect x="309.99" y="267.3" width="3.25" height="2.06" style="fill: rgb(255, 255, 255); stroke: rgb(38, 50, 56); stroke-miterlimit: 10; transform-origin: 311.615px 268.33px;" id="elgwdu539mt5" class="animable"></rect><rect x="315.08" y="267.3" width="3.25" height="2.06" style="fill: rgb(255, 255, 255); stroke: rgb(38, 50, 56); stroke-miterlimit: 10; transform-origin: 316.705px 268.33px;" id="elk5ii1q0oc3" class="animable"></rect><rect x="198.31" y="231.99" width="5.59" height="2.23" style="fill: none; stroke: rgb(38, 50, 56); stroke-miterlimit: 10; transform-origin: 201.105px 233.105px;" id="el3n5sphsx4vh" class="animable"></rect><rect x="188.68" y="228.92" width="17.18" height="1.26" style="fill: none; stroke: rgb(38, 50, 56); stroke-miterlimit: 10; transform-origin: 197.27px 229.55px;" id="el8n5h5jr11m" class="animable"></rect><polygon points="198.31 231.99 192.31 230.31 205.85 230.31 203.9 231.99 198.31 231.99" style="fill: none; stroke: rgb(38, 50, 56); stroke-miterlimit: 10; transform-origin: 199.08px 231.15px;" id="el2mrlrk8t12x" class="animable"></polygon><polygon points="180.59 263.36 173.39 263.36 173.39 264.4 179.98 265.78 180.59 263.36" style="fill: none; stroke: rgb(38, 50, 56); stroke-miterlimit: 10; transform-origin: 176.99px 264.57px;" id="elr76z3nvfc9" class="animable"></polygon><polygon points="372.61 287.42 372.61 282.51 396.6 282.51 396.6 283.27 398.89 282.29 401.18 282.29 401.18 286.87 372.61 287.42" style="fill: rgb(255, 255, 255); stroke: rgb(38, 50, 56); stroke-miterlimit: 10; transform-origin: 386.895px 284.855px;" id="elgxyl4pvk8gp" class="animable"></polygon></g><g id="freepik--Character--inject-61" class="animable" style="transform-origin: 120.694px 215.635px;"><ellipse cx="134.84" cy="47.94" rx="18.62" ry="9.83" style="fill: rgb(255, 255, 255); stroke: rgb(38, 50, 56); stroke-linecap: round; stroke-linejoin: round; transform-origin: 134.84px 47.94px;" id="elmmvrcua2fjc" class="animable"></ellipse><path d="M118.1,62.93l-8.67-13.82s8.67-7,25.76-6.79,26,8,26,8l-8.57,12.48Z" style="fill: rgb(255, 255, 255); stroke: rgb(38, 50, 56); stroke-linecap: round; stroke-linejoin: round; transform-origin: 135.31px 52.6227px;" id="elssj5jl6s34" class="animable"></path><path d="M185.54,224.18s-2.81,8.89-2.81,11.47.7,5.39-.24,8.2-1.64,4-.23,4.44,4-4.91,4-4.91v5.15s-3.51,2.57-2.81,4.21,7.49-2.1,7.49-2.1,3.75-6.79,4.45-7.5,2.11-18,2.11-18Z" style="fill: rgb(255, 255, 255); stroke: rgb(38, 50, 56); stroke-linecap: round; stroke-linejoin: round; transform-origin: 189.48px 238.668px;" id="elel4de6ywpl" class="animable"></path><polygon points="185.07 216.92 184.83 225.81 197.42 227.83 198.88 217.62 185.07 216.92" style="fill: rgb(255, 255, 255); stroke: rgb(38, 50, 56); stroke-linecap: round; stroke-linejoin: round; transform-origin: 191.855px 222.375px;" id="elv0yidt6byud" class="animable"></polygon><path d="M117,363.65l-3,3.76s.16,10.46-1.17,11.79c-3.12,3.12-6.86,8-6.5,9.76s-.36,3.62.72,4,28.79,0,28.79,0,3.25-.72,3.25-3.62V365.1Z" style="fill: rgb(38, 50, 56); stroke: rgb(38, 50, 56); stroke-linecap: round; stroke-linejoin: round; transform-origin: 122.698px 378.389px;" id="elsc0e2gds4bi" class="animable"></path><path d="M106.34,390c0,1.43-.26,2.69.62,3,1.08.36,28.79,0,28.79,0s2.75-.62,3.19-3Z" style="fill: rgb(117, 117, 117); stroke: rgb(38, 50, 56); stroke-linecap: round; stroke-linejoin: round; transform-origin: 122.622px 391.58px;" id="el9tmudopi6x8" class="animable"></path><path d="M114.3,378.72s10.14-3.9,19.5.94" style="fill: none; stroke: rgb(125, 125, 125); stroke-linecap: round; stroke-linejoin: round; transform-origin: 124.05px 378.447px;" id="el64mntx0uhq" class="animable"></path><path d="M161.82,363.65l3,3.76s-.15,10.46,1.18,11.79c3.12,3.12,6.86,8,6.5,9.76s.36,3.62-.73,4-28.78,0-28.78,0-3.26-.72-3.26-3.62V365.1Z" style="fill: rgb(38, 50, 56); stroke: rgb(38, 50, 56); stroke-linecap: round; stroke-linejoin: round; transform-origin: 156.127px 378.389px;" id="elp3xbgs0nr3e" class="animable"></path><path d="M172.43,390c-.05,1.43.26,2.69-.63,3-1.08.36-28.78,0-28.78,0s-2.76-.62-3.19-3Z" style="fill: rgb(117, 117, 117); stroke: rgb(38, 50, 56); stroke-linecap: round; stroke-linejoin: round; transform-origin: 156.137px 391.58px;" id="eljbw4f276v7" class="animable"></path><path d="M164.47,378.72s-10.15-3.9-19.51.94" style="fill: none; stroke: rgb(125, 125, 125); stroke-linecap: round; stroke-linejoin: round; transform-origin: 154.715px 378.447px;" id="elh3ierg1aiz" class="animable"></path><path d="M105.92,205.53s.94,49.88.94,52.45,3,47.77,4.45,55.73,4.21,40.49,4.21,40.49-3.28,2.11-3.28,3.28.7,10.16.7,10.16a93.7,93.7,0,0,0,8.9,3.42c2.11.47,15.22-.7,16.63-.94s13.81,1.41,15.69,1.17a21.47,21.47,0,0,0,6.55-2.1c.94-.71,4.77-.48,4.77-.48s-1-8.42-1-9.83-3-4.21-3-5.38,5.85-55.24,5.85-57.82,3-64.39,3-64.39V206.7Z" style="fill: rgb(255, 255, 255); stroke: rgb(38, 50, 56); stroke-linecap: round; stroke-linejoin: round; transform-origin: 138.125px 288.422px;" id="eldjz501t35rq" class="animable"></path><path d="M203.52,211c0,2.89-1.09,7.6-2.54,8.32s-17.38-1.08-18.83-2.71-1.09-22.64-1.09-23.18-7.24-36.06-7.24-36.06l-2.17,50.88a63.43,63.43,0,0,1-9.6,1.82c-4.35.36-19.38,3.07-31.87,1.44s-26.44-3.07-26.44-3.07l-1.27-67.91s-2.71-2.9-4.88-2.9-20.29-1.45-29-2.35a122.25,122.25,0,0,1-19.55-3.8c-2.36-.73-5.07-2.18-3.63-5.44S77.3,107.2,77.3,107.2s23.18-5.61,25.54-5.61,13.76-.18,13.76-.18,17.2-.73,22.27-.73,26.8.73,31.51,1.63,8.33,1.27,10.86,2.36a15.46,15.46,0,0,1,7.07,6.33c2,3.26,5.79,21,6.15,22.1s5.44,16.11,7.25,28.43c.8,5.41,1.24,15.05,1.49,24.42,0,1.36.07,2.72.09,4.05,0,.68,0,1.36.05,2,0,1.39,0,2.76.07,4.08,0,.7,0,1.38,0,2,0,1.45,0,2.83,0,4.11h0C203.52,206.88,203.52,210.17,203.52,211Z" style="fill: rgb(255, 255, 255); stroke: rgb(38, 50, 56); stroke-linecap: round; stroke-linejoin: round; transform-origin: 124.264px 160.082px;" id="el6568qg7erzw" class="animable"></path><path d="M158,144.67a3.58,3.58,0,1,0-3.58,3.57A3.58,3.58,0,0,0,158,144.67Z" style="fill: rgb(255, 255, 255); stroke: rgb(38, 50, 56); stroke-linecap: round; stroke-linejoin: round; transform-origin: 154.42px 144.66px;" id="elt0pqsl5b14" class="animable"></path><polygon points="157.54 136.56 154.44 140.38 151.1 136.56 151.1 127.27 157.54 127.27 157.54 136.56" style="fill: #757575; stroke: rgb(38, 50, 56); stroke-linecap: round; stroke-linejoin: round; transform-origin: 154.32px 133.825px;" id="elyekza9icr8f" class="animable"></polygon><path d="M167.55,144.67a3.58,3.58,0,1,0-3.57,3.57A3.57,3.57,0,0,0,167.55,144.67Z" style="fill: rgb(255, 255, 255); stroke: rgb(38, 50, 56); stroke-linecap: round; stroke-linejoin: round; transform-origin: 163.97px 144.66px;" id="elbpemgpg9ng" class="animable"></path><polygon points="167.08 136.56 163.98 140.38 160.64 136.56 160.64 127.27 167.08 127.27 167.08 136.56" style="fill: rgb(38, 50, 56); stroke: rgb(38, 50, 56); stroke-miterlimit: 10; transform-origin: 163.86px 133.825px;" id="elaj01s61xfdl" class="animable"></polygon><polygon points="164.4 139.86 164.4 127.27 162.99 127.27 162.99 139.25 163.98 140.38 164.4 139.86" style="fill: #757575; stroke: rgb(38, 50, 56); stroke-linecap: round; stroke-linejoin: round; transform-origin: 163.695px 133.825px;" id="elfdffuqnpykd" class="animable"></polygon><polygon points="166.51 127.27 165.1 127.27 165.1 138.99 166.51 137.26 166.51 127.27" style="fill: #757575; stroke: rgb(38, 50, 56); stroke-linecap: round; stroke-linejoin: round; transform-origin: 165.805px 133.13px;" id="elqvp68dn1kt" class="animable"></polygon><polygon points="160.88 136.84 162.29 138.45 162.29 127.27 160.88 127.27 160.88 136.84" style="fill: #757575; stroke: rgb(38, 50, 56); stroke-linecap: round; stroke-linejoin: round; transform-origin: 161.585px 132.86px;" id="el0g2gg8gtbxat" class="animable"></polygon><path d="M186.56,133.48v4.17l10.77,4.71c-.52-1.8-1-3.42-1.43-4.79Z" style="fill: #757575; stroke: rgb(38, 50, 56); stroke-linecap: round; stroke-linejoin: round; transform-origin: 191.945px 137.92px;" id="el5x1jusmdd5d" class="animable"></path><path d="M199.8,151.79,186.56,146v4.17l14.25,6.24C200.5,154.86,200.16,153.31,199.8,151.79Z" style="fill: #757575; stroke: rgb(38, 50, 56); stroke-linecap: round; stroke-linejoin: round; transform-origin: 193.685px 151.205px;" id="eldbipqe69jkp" class="animable"></path><path d="M186.56,139.73v4.17l12.68,5.56c-.41-1.63-.83-3.22-1.24-4.72Z" style="fill: #757575; stroke: rgb(38, 50, 56); stroke-linecap: round; stroke-linejoin: round; transform-origin: 192.9px 144.595px;" id="elxb5c5c0uxl" class="animable"></path><path d="M203.29,190l-6.38,8.13V194l6.29-8C203.24,187.31,203.27,188.67,203.29,190Z" style="fill: #757575; stroke: rgb(38, 50, 56); stroke-linecap: round; stroke-linejoin: round; transform-origin: 200.1px 192.065px;" id="elybssgie5f78" class="animable"></path><path d="M203.48,202.28h0l-6.57,8.35v-4.17l6.52-8.3C203.45,199.62,203.47,201,203.48,202.28Z" style="fill: #757575; stroke: rgb(38, 50, 56); stroke-linecap: round; stroke-linejoin: round; transform-origin: 200.195px 204.395px;" id="elic089r0xnk" class="animable"></path><path d="M203.41,196.12l-6.5,8.27v-4.17l6.43-8.18C203.36,193.43,203.39,194.8,203.41,196.12Z" style="fill: #757575; stroke: rgb(38, 50, 56); stroke-linecap: round; stroke-linejoin: round; transform-origin: 200.16px 198.215px;" id="elabcu2kxish6" class="animable"></path><polyline points="102.47 140.52 100.66 128.03 94.57 118.15" style="fill: none; stroke: rgb(38, 50, 56); stroke-linecap: round; stroke-linejoin: round; transform-origin: 98.52px 129.335px;" id="eld1ta2386fu" class="animable"></polyline><line x1="93.08" y1="115.73" x2="91.61" y2="113.36" style="fill: none; stroke: rgb(38, 50, 56); stroke-linecap: round; stroke-linejoin: round; transform-origin: 92.345px 114.545px;" id="elgm4bkeqmnaa" class="animable"></line><line x1="100.66" y1="128.03" x2="89.44" y2="120.6" style="fill: none; stroke: rgb(38, 50, 56); stroke-linecap: round; stroke-linejoin: round; transform-origin: 95.05px 124.315px;" id="eluqotgtghmfe" class="animable"></line><line x1="177.78" y1="124.65" x2="178.71" y2="120.42" style="fill: none; stroke: rgb(38, 50, 56); stroke-linecap: round; stroke-linejoin: round; transform-origin: 178.245px 122.535px;" id="elktzx4xxeq" class="animable"></line><polyline points="173.82 157.36 174.36 140.16 177.17 127.41" style="fill: none; stroke: rgb(38, 50, 56); stroke-linecap: round; stroke-linejoin: round; transform-origin: 175.495px 142.385px;" id="elgvqu01tdwh7" class="animable"></polyline><line x1="174.54" y1="140.88" x2="179.25" y2="130.02" style="fill: none; stroke: rgb(38, 50, 56); stroke-linecap: round; stroke-linejoin: round; transform-origin: 176.895px 135.45px;" id="elf4twp820rti" class="animable"></line><path d="M115.75,106.25s6.09,10.53,12,17.32,12.17,8,14,7.5,16.39-15,19.2-18,5.15-9.37,5.15-9.37h-7.26s-10.77,16.16-12.41,19.2a55.23,55.23,0,0,1-3.51,5.62L138.7,128a23.21,23.21,0,0,1-6.79-5.62c-3-3.74-9.36-16.39-9.36-16.39Z" style="fill: #757575; stroke: rgb(38, 50, 56); stroke-linecap: round; stroke-linejoin: round; transform-origin: 140.925px 117.435px;" id="eli2sj738ubaq" class="animable"></path><path d="M138.29,129.59s-20.15,20.27-19.21,22,2.17,9.74,2.17,9.74L140.7,130,125.63,170.4s10.49-9.4,12.49-13.89S144,129.29,144,129.29,141.87,124.05,138.29,129.59Z" style="fill: #757575; stroke: rgb(38, 50, 56); stroke-linecap: round; stroke-linejoin: round; transform-origin: 131.524px 148.724px;" id="el1lbm5yav15z" class="animable"></path><path d="M143.85,127.79s-3.74-1.87-6.08-.24-.94,3.28.23,3.75.7.47,3.75-.23S144.09,129.19,143.85,127.79Z" style="fill: #757575; stroke: rgb(38, 50, 56); stroke-linecap: round; stroke-linejoin: round; transform-origin: 140.299px 129.255px;" id="elescibouyjz" class="animable"></path><path d="M125.12,92.9a7.92,7.92,0,0,0-4.21,2.81c-1.41,2.11-4.69,4.21-11,7.26s-6.56,4.68-2.81,4.68,11.94.94,12.88.94,7.49,3.28,10.3,5.62a22,22,0,0,1,4.45,5.15l9.13-.94s5.16-5.15,6.09-6.55S156,107,156,107s17.8-1.88,18.27-2.58-8.67-3.74-12.42-7S151.11,90.56,149,90.09s-21.08.47-21.08.47Z" style="fill: rgb(255, 255, 255); stroke: rgb(38, 50, 56); stroke-linecap: round; stroke-linejoin: round; transform-origin: 139.466px 104.659px;" id="el495ikct6h5j" class="animable"></path><path d="M122.78,86.34s1.4,15,1.4,16.63,11.71,18.73,13.12,20.37,4.68,2.58,5.15.7,9.13-19.67,9.13-19.67l-.23-20.84s-10.54,8-12.88,8.9-14.75-8.2-14.75-8.2S122.55,85.41,122.78,86.34Z" style="fill: rgb(255, 255, 255); stroke: rgb(38, 50, 56); stroke-linecap: round; stroke-linejoin: round; transform-origin: 137.165px 104.304px;" id="elncg62l8owc" class="animable"></path><path d="M123.72,84.23s-1.17,1.18-.94,2.11c0,0,.15,1.64.36,3.89,3.37,5.14,11,16.24,14.49,16.42s10.72-12.36,13.77-18l-.05-5.14s-10.54,8-12.88,8.9S123.72,84.23,123.72,84.23Z" style="fill: rgb(38, 50, 56); stroke: rgb(38, 50, 56); stroke-linecap: round; stroke-linejoin: round; transform-origin: 137.075px 95.081px;" id="elr0smuucvj9l" class="animable"></path><path d="M119,65.74s-3.51-3.28-4.45,1.63S120,77.44,120,77.44Z" style="fill: rgb(255, 255, 255); stroke: rgb(38, 50, 56); stroke-linecap: round; stroke-linejoin: round; transform-origin: 117.228px 71.0536px;" id="elfpoavcj5hi" class="animable"></path><path d="M152.05,66s4.92-4.22,5.39,1.17S152.05,77,152.05,77Z" style="fill: rgb(255, 255, 255); stroke: rgb(38, 50, 56); stroke-linecap: round; stroke-linejoin: round; transform-origin: 154.758px 70.7142px;" id="eli3wgqnhh1do" class="animable"></path><path d="M118.38,65s1.56,17.59,2.92,20.19,8.67,13,13.1,14.28,5.85.11,7.28-.8S151.23,88,151.76,84.76s.85-22,.85-22l-34.51.17Z" style="fill: rgb(255, 255, 255); stroke: rgb(38, 50, 56); stroke-linecap: round; stroke-linejoin: round; transform-origin: 135.355px 81.3975px;" id="elbjrrw5a8u9h" class="animable"></path><line x1="139.4" y1="67.61" x2="139.4" y2="77.91" style="fill: none; stroke: rgb(38, 50, 56); stroke-linecap: round; stroke-linejoin: round; transform-origin: 139.4px 72.76px;" id="elax2vi0j6jir" class="animable"></line><path d="M133.79,81.66a37.43,37.43,0,0,0,3.74,1.17c1.17.23,3.75-1.64,3.75-1.64" style="fill: none; stroke: rgb(38, 50, 56); stroke-linecap: round; stroke-linejoin: round; transform-origin: 137.535px 82.0198px;" id="el48d7pxt4r8n" class="animable"></path><path d="M131,86.58a12.34,12.34,0,0,0,6.08,1.64,14,14,0,0,0,6.56-1.88" style="fill: none; stroke: rgb(38, 50, 56); stroke-linecap: round; stroke-linejoin: round; transform-origin: 137.32px 87.28px;" id="elx8asey3x1s" class="animable"></path><path d="M144.69,72.18c0,1-.46,1.91-1,1.91s-1-.86-1-1.91.45-1.91,1-1.91S144.69,71.13,144.69,72.18Z" style="fill: rgb(38, 50, 56); transform-origin: 143.69px 72.18px;" id="eli316itlpeha" class="animable"></path><path d="M130.72,72.18c0,1-.46,1.91-1,1.91s-1-.86-1-1.91.46-1.91,1-1.91S130.72,71.13,130.72,72.18Z" style="fill: rgb(38, 50, 56); transform-origin: 129.72px 72.18px;" id="elzf31y1mvmbo" class="animable"></path><path d="M140.37,66.59s4.83-2.67,7.62.38" style="fill: none; stroke: rgb(38, 50, 56); stroke-linecap: round; stroke-linejoin: round; transform-origin: 144.18px 66.2392px;" id="ele87c4k2qwaf" class="animable"></path><path d="M132.11,66s-5.33-2-7.87.63" style="fill: none; stroke: rgb(38, 50, 56); stroke-linecap: round; stroke-linejoin: round; transform-origin: 128.175px 65.951px;" id="elk69k7swa6h" class="animable"></path><path d="M91.79,79s15.75-7.6,16.48-8.14,11.41-4.17,12.49-4.71,13.4-1.27,13.4-1.27,1.09.9-.54,1.81-9.6,3.62-10.14,4-2.54,1.27-2.54,1.27,5.26-1.08,6,0-.9,2.17-3.26,3.26-5.43,2.36-6.34,2.9-2,2.71-5.43,4.34a20.5,20.5,0,0,1-8.15,1.45l-7.6,2.9Z" style="fill: rgb(255, 255, 255); stroke: rgb(38, 50, 56); stroke-linecap: round; stroke-linejoin: round; transform-origin: 113.153px 75.845px;" id="eltc3r6lwhl9" class="animable"></path><path d="M119.86,72.25s-6,2.9-6.88,3.63-3.44,4.34-8,5.25-6.34.54-6.34.54" style="fill: none; stroke: rgb(38, 50, 56); stroke-linecap: round; stroke-linejoin: round; transform-origin: 109.25px 76.9972px;" id="elf3z6dyryuug" class="animable"></path><polygon points="93.6 78.05 100.12 91.09 89.8 96.16 82.92 82.21 93.6 78.05" style="fill: rgb(255, 255, 255); stroke: rgb(38, 50, 56); stroke-linecap: round; stroke-linejoin: round; transform-origin: 91.52px 87.105px;" id="elp27y7jizl3" class="animable"></polygon><polygon points="89.8 79.53 96.8 92.72 98.6 91.83 91.67 78.8 89.8 79.53" style="fill: #757575; stroke: rgb(38, 50, 56); stroke-linecap: round; stroke-linejoin: round; transform-origin: 94.2px 85.76px;" id="eli5jbrg1lwd" class="animable"></polygon><polygon points="92.11 95.02 93.91 94.14 86.57 80.79 84.69 81.52 92.11 95.02" style="fill: #757575; stroke: rgb(38, 50, 56); stroke-linecap: round; stroke-linejoin: round; transform-origin: 89.3px 87.905px;" id="elr2alcde514" class="animable"></polygon><path d="M63.54,126.94a57,57,0,0,0,5.8-8.51S87.81,103.94,89.62,102s1.45-3.62,1.08-5.25-7.78-14.49-7.78-14.49-.18-2.17-2.9-2S54.31,98.15,50.5,102.31s-11.22,10.14-12,12.5-1.08,10.32.55,12.67,12.49,6.16,17.74,5.8,6-1.27,6-1.27" style="fill: rgb(255, 255, 255); stroke: rgb(38, 50, 56); stroke-linecap: round; stroke-linejoin: round; transform-origin: 64.435px 106.777px;" id="el7b8cgo1gdwp" class="animable"></path><path d="M69.34,118.43a129.32,129.32,0,0,1-12.83,7" style="fill: none; stroke: rgb(38, 50, 56); stroke-linecap: round; stroke-linejoin: round; transform-origin: 62.925px 121.93px;" id="eldi9rpmoevrp" class="animable"></path><line x1="132.46" y1="232.85" x2="144.95" y2="235.66" style="fill: none; stroke: rgb(38, 50, 56); stroke-linecap: round; stroke-linejoin: round; transform-origin: 138.705px 234.255px;" id="eltejz7zuxsfm" class="animable"></line><line x1="139.33" y1="234.72" x2="139.33" y2="369.19" style="fill: none; stroke: rgb(38, 50, 56); stroke-linecap: round; stroke-linejoin: round; transform-origin: 139.33px 301.955px;" id="eleu31nlt3l64" class="animable"></line><polygon points="185.01 219.03 184.96 221.05 198.11 223 198.4 221.02 185.01 219.03" style="fill: #757575; stroke: rgb(38, 50, 56); stroke-linecap: round; stroke-linejoin: round; transform-origin: 191.68px 221.015px;" id="elxv68k1uqygi" class="animable"></polygon><polygon points="197.67 226.1 197.95 224.12 184.93 222.2 184.88 224.21 197.67 226.1" style="fill: #757575; stroke: rgb(38, 50, 56); stroke-linecap: round; stroke-linejoin: round; transform-origin: 191.415px 224.15px;" id="el3dyo6f1vsnw" class="animable"></polygon></g><g id="freepik--ship-1--inject-61" class="animable animator-hidden" style="transform-origin: 141.905px 347.775px;"><path d="M247,392.94V313.5h24a3,3,0,0,0,0-6H247v-68h24a3,3,0,0,0,0-6H13v6H50v68H13v6H50v79.44H13V470H273.24V392.94Zm-8,0H77V313.5H239Zm0-85.44H77v-68H239Z" style="fill: rgb(38, 50, 56); stroke: rgb(38, 50, 56); stroke-miterlimit: 10; transform-origin: 143.5px 351.75px;" id="el0gipbx3lbybo" class="animable"></path><path d="M29,409a5.34,5.34,0,1,0-5.33,5.33A5.33,5.33,0,0,0,29,409Z" style="fill: none; stroke: rgb(89, 89, 89); stroke-miterlimit: 10; transform-origin: 23.66px 408.99px;" id="elqc6f3r4vx1" class="animable"></path><circle cx="43" cy="409" r="5.33" style="fill: none; stroke: rgb(89, 89, 89); stroke-miterlimit: 10; transform-origin: 43px 409px;" id="elein5c43upp9" class="animable"></circle><path d="M67.67,409a5.34,5.34,0,1,0-5.34,5.33A5.33,5.33,0,0,0,67.67,409Z" style="fill: none; stroke: rgb(89, 89, 89); stroke-miterlimit: 10; transform-origin: 62.33px 408.99px;" id="elzdwp506rqz9" class="animable"></path><path d="M87,409a5.34,5.34,0,1,0-5.33,5.33A5.33,5.33,0,0,0,87,409Z" style="fill: none; stroke: rgb(89, 89, 89); stroke-miterlimit: 10; transform-origin: 81.66px 408.99px;" id="elg8f4uncsyaa" class="animable"></path><circle cx="101" cy="409" r="5.33" style="fill: none; stroke: rgb(89, 89, 89); stroke-miterlimit: 10; transform-origin: 101px 409px;" id="el79o7u9py6be" class="animable"></circle><path d="M125.67,409a5.34,5.34,0,1,0-5.34,5.33A5.33,5.33,0,0,0,125.67,409Z" style="fill: none; stroke: rgb(89, 89, 89); stroke-miterlimit: 10; transform-origin: 120.33px 408.99px;" id="el4wjfqa5yqnr" class="animable"></path><path d="M145,409a5.34,5.34,0,1,0-5.33,5.33A5.33,5.33,0,0,0,145,409Z" style="fill: none; stroke: rgb(89, 89, 89); stroke-miterlimit: 10; transform-origin: 139.66px 408.99px;" id="elf8zdczzu3q5" class="animable"></path><circle cx="159" cy="409" r="5.33" style="fill: none; stroke: rgb(89, 89, 89); stroke-miterlimit: 10; transform-origin: 159px 409px;" id="el3i2qk10xlop" class="animable"></circle><path d="M183.67,409a5.34,5.34,0,1,0-5.34,5.33A5.33,5.33,0,0,0,183.67,409Z" style="fill: none; stroke: rgb(89, 89, 89); stroke-miterlimit: 10; transform-origin: 178.33px 408.99px;" id="elfiqpcl5liqe" class="animable"></path><path d="M203,409a5.34,5.34,0,1,0-5.33,5.33A5.33,5.33,0,0,0,203,409Z" style="fill: none; stroke: rgb(89, 89, 89); stroke-miterlimit: 10; transform-origin: 197.66px 408.99px;" id="elrimys9hmojt" class="animable"></path><circle cx="217" cy="409" r="5.33" style="fill: none; stroke: rgb(89, 89, 89); stroke-miterlimit: 10; transform-origin: 217px 409px;" id="elgb46z7wgl3" class="animable"></circle><path d="M241.67,409a5.34,5.34,0,1,0-5.34,5.33A5.33,5.33,0,0,0,241.67,409Z" style="fill: none; stroke: rgb(89, 89, 89); stroke-miterlimit: 10; transform-origin: 236.33px 408.99px;" id="eld3bdpz69xfk" class="animable"></path><path d="M261,409a5.34,5.34,0,1,0-5.33,5.33A5.33,5.33,0,0,0,261,409Z" style="fill: none; stroke: rgb(89, 89, 89); stroke-miterlimit: 10; transform-origin: 255.66px 408.99px;" id="elei1lceqr7aa" class="animable"></path><rect x="9.24" y="225.55" width="265.33" height="14.71" style="fill: #757575; stroke: rgb(38, 50, 56); stroke-linecap: round; stroke-linejoin: round; transform-origin: 141.905px 232.905px;" id="elryzzyhmp0l" class="animable"></rect><rect x="9.24" y="303.99" width="265.33" height="10.7" style="fill: #757575; stroke: rgb(38, 50, 56); stroke-linecap: round; stroke-linejoin: round; transform-origin: 141.905px 309.34px;" id="elkpgk3l33y0n" class="animable"></rect><rect x="9.24" y="392.38" width="265.33" height="6.7" style="fill: #757575; stroke: rgb(38, 50, 56); stroke-linecap: round; stroke-linejoin: round; transform-origin: 141.905px 395.73px;" id="elroibqm2o569" class="animable"></rect><rect x="9.24" y="419.31" width="265.33" height="6.7" style="fill: #757575; stroke: rgb(38, 50, 56); stroke-linecap: round; stroke-linejoin: round; transform-origin: 141.905px 422.66px;" id="ellgrqqqh65in" class="animable"></rect></g><defs>     <filter id="active" height="200%">         <feMorphology in="SourceAlpha" result="DILATED" operator="dilate" radius="2"></feMorphology>                <feFlood flood-color="#32DFEC" flood-opacity="1" result="PINK"></feFlood>        <feComposite in="PINK" in2="DILATED" operator="in" result="OUTLINE"></feComposite>        <feMerge>            <feMergeNode in="OUTLINE"></feMergeNode>            <feMergeNode in="SourceGraphic"></feMergeNode>        </feMerge>    </filter>    <filter id="hover" height="200%">        <feMorphology in="SourceAlpha" result="DILATED" operator="dilate" radius="2"></feMorphology>                <feFlood flood-color="#ff0000" flood-opacity="0.5" result="PINK"></feFlood>        <feComposite in="PINK" in2="DILATED" operator="in" result="OUTLINE"></feComposite>        <feMerge>            <feMergeNode in="OUTLINE"></feMergeNode>            <feMergeNode in="SourceGraphic"></feMergeNode>        </feMerge>            <feColorMatrix type="matrix" values="0   0   0   0   0                0   1   0   0   0                0   0   0   0   0                0   0   0   1   0 "></feColorMatrix>    </filter></defs></svg>